<svg width="111.626mm" height="82.406mm" viewBox="0 0 111.626 82.406" xmlns="http://www.w3.org/2000/svg"><g id="svgGroup" stroke-linecap="round" fill-rule="evenodd" font-size="9pt" stroke="#000" stroke-width="0.25mm" fill="none" style="stroke:#000;stroke-width:0.25mm;fill:none"><path d="M 0 45.75 L 0 13.75 A 1 1 0 0 1 1 12.75 L 17 12.75 A 1 1 0 0 0 18 11.75 L 18 11.625 A 1 1 0 0 1 19 10.625 L 35 10.625 A 1 1 0 0 0 36 9.625 L 36 3.125 A 1 1 0 0 1 37 2.125 L 53 2.125 A 1 1 0 0 0 54 1.125 L 54 1 A 1 1 0 0 1 55 0 L 71 0 A 1 1 0 0 1 72 1 L 72 3.25 A 1 1 0 0 0 73 4.25 L 89 4.25 A 1 1 0 0 1 90 5.25 L 90 7.5 A 1 1 0 0 0 91 8.5 L 107 8.5 A 1 1 0 0 1 108 9.5 L 108 64.79 A 1 1 0 0 0 108.593 65.703 L 111.033 66.789 A 1 1 0 0 1 111.539 68.11 L 105.438 81.813 A 1 1 0 0 1 104.118 82.32 L 89.501 75.812 A 1 1 0 0 1 88.995 74.492 L 89.366 73.657 A 1 1 0 0 0 88.453 72.25 L 73 72.25 A 1 1 0 0 1 72 71.25 L 72 69 A 1 1 0 0 0 71 68 L 55 68 A 1 1 0 0 0 54 69 L 54 69.125 A 1 1 0 0 1 53 70.125 L 37 70.125 A 1 1 0 0 0 36 71.125 L 36 77.625 A 1 1 0 0 1 35 78.625 L 19 78.625 A 1 1 0 0 1 18 77.625 L 18 74.75 A 1 1 0 0 0 17 73.75 L 2 73.75 A 1 1 0 0 1 1 72.75 L 1 47.482 A 1 1 0 0 0 0.5 46.616 A 1 1 0 0 1 0 45.75 Z" vector-effect="non-scaling-stroke"/></g></svg>