<svg width="111.626mm" height="82.406mm" viewBox="0 0 111.626 82.406" xmlns="http://www.w3.org/2000/svg"><g id="svgGroup" stroke-linecap="round" fill-rule="evenodd" font-size="9pt" stroke="#000" stroke-width="0.25mm" fill="none" style="stroke:#000;stroke-width:0.25mm;fill:none"><path d="M 94.626 73.75 L 110.626 73.75 A 1 1 0 0 0 111.626 72.75 L 111.626 57.75 A 1 1 0 0 0 111.126 56.884 A 1 1 0 0 1 110.626 56.018 L 110.626 30.482 A 1 1 0 0 1 111.126 29.616 A 1 1 0 0 0 111.626 28.75 L 111.626 13.75 A 1 1 0 0 0 110.626 12.75 L 94.626 12.75 A 1 1 0 0 1 93.626 11.75 L 93.626 11.625 A 1 1 0 0 0 92.626 10.625 L 76.626 10.625 A 1 1 0 0 1 75.626 9.625 L 75.626 3.125 A 1 1 0 0 0 74.626 2.125 L 58.626 2.125 A 1 1 0 0 1 57.626 1.125 L 57.626 1 A 1 1 0 0 0 56.626 0 L 40.626 0 A 1 1 0 0 0 39.626 1 L 39.626 3.25 A 1 1 0 0 1 38.626 4.25 L 22.626 4.25 A 1 1 0 0 0 21.626 5.25 L 21.626 7.5 A 1 1 0 0 1 20.626 8.5 L 4.626 8.5 A 1 1 0 0 0 3.626 9.5 L 3.626 64.79 A 1 1 0 0 1 3.033 65.703 L 0.593 66.789 A 1 1 0 0 0 0.086 68.11 L 6.188 81.813 A 1 1 0 0 0 7.508 82.32 L 22.125 75.812 A 1 1 0 0 0 22.631 74.492 L 22.26 73.657 A 1 1 0 0 1 23.173 72.25 L 38.626 72.25 A 1 1 0 0 0 39.626 71.25 L 39.626 69 A 1 1 0 0 1 40.626 68 L 56.626 68 A 1 1 0 0 1 57.626 69 L 57.626 69.125 A 1 1 0 0 0 58.626 70.125 L 74.626 70.125 A 1 1 0 0 1 75.626 71.125 L 75.626 77.625 A 1 1 0 0 0 76.626 78.625 L 92.626 78.625 A 1 1 0 0 0 93.626 77.625 L 93.626 74.75 A 1 1 0 0 1 94.626 73.75 Z" vector-effect="non-scaling-stroke"/></g></svg>