M48
; DRILL file {KiCad 7.0.8} date Mon 01 Apr 2024 14:52:37 BST
; FORMAT={-:-/ absolute / metric / decimal}
; #@! TF.CreationDate,2024-04-01T14:52:37+01:00
; #@! TF.GenerationSoftware,Kicad,Pcbnew,7.0.8
; #@! TF.FileFunction,Plated,1,2,PTH
FMAT,2
METRIC
; #@! TA.AperFunction,Plated,PTH,ComponentDrill
T1C1.092
; #@! TA.AperFunction,Plated,PTH,ComponentDrill
T2C1.100
%
G90
G05
T1
X104.0Y-101.475
X104.0Y-116.715
X106.54Y-101.475
X106.54Y-116.715
X109.08Y-101.475
X109.08Y-116.715
X111.62Y-101.475
X111.62Y-116.715
X114.16Y-101.475
X114.16Y-116.715
X116.7Y-101.475
X116.7Y-116.715
X119.24Y-101.475
X119.24Y-116.715
X121.78Y-101.475
X121.78Y-116.715
X124.32Y-101.475
X124.32Y-116.715
X126.86Y-101.475
X126.86Y-116.715
X129.4Y-101.475
X129.4Y-116.715
X131.94Y-101.475
X131.94Y-116.715
T2
X131.75Y-103.75
X131.75Y-114.25
T0
M30
