G04 #@! TF.GenerationSoftware,KiCad,Pcbnew,7.0.8*
G04 #@! TF.CreationDate,2024-04-01T14:50:31+01:00*
G04 #@! TF.ProjectId,daughterboard,64617567-6874-4657-9262-6f6172642e6b,rev?*
G04 #@! TF.SameCoordinates,Original*
G04 #@! TF.FileFunction,Copper,L1,Top*
G04 #@! TF.FilePolarity,Positive*
%FSLAX46Y46*%
G04 Gerber Fmt 4.6, Leading zero omitted, Abs format (unit mm)*
G04 Created by KiCad (PCBNEW 7.0.8) date 2024-04-01 14:50:31*
%MOMM*%
%LPD*%
G01*
G04 APERTURE LIST*
G04 Aperture macros list*
%AMRoundRect*
0 Rectangle with rounded corners*
0 $1 Rounding radius*
0 $2 $3 $4 $5 $6 $7 $8 $9 X,Y pos of 4 corners*
0 Add a 4 corners polygon primitive as box body*
4,1,4,$2,$3,$4,$5,$6,$7,$8,$9,$2,$3,0*
0 Add four circle primitives for the rounded corners*
1,1,$1+$1,$2,$3*
1,1,$1+$1,$4,$5*
1,1,$1+$1,$6,$7*
1,1,$1+$1,$8,$9*
0 Add four rect primitives between the rounded corners*
20,1,$1+$1,$2,$3,$4,$5,0*
20,1,$1+$1,$4,$5,$6,$7,0*
20,1,$1+$1,$6,$7,$8,$9,0*
20,1,$1+$1,$8,$9,$2,$3,0*%
G04 Aperture macros list end*
G04 #@! TA.AperFunction,ComponentPad*
%ADD10C,1.752600*%
G04 #@! TD*
G04 #@! TA.AperFunction,ComponentPad*
%ADD11RoundRect,0.250001X-0.799999X-0.799999X0.799999X-0.799999X0.799999X0.799999X-0.799999X0.799999X0*%
G04 #@! TD*
G04 #@! TA.AperFunction,Conductor*
%ADD12C,0.381000*%
G04 #@! TD*
G04 APERTURE END LIST*
D10*
X104000000Y-101475000D03*
X106540000Y-101475000D03*
X109080000Y-101475000D03*
X111620000Y-101475000D03*
X114160000Y-101475000D03*
X116700000Y-101475000D03*
X119240000Y-101475000D03*
X121780000Y-101475000D03*
X124320000Y-101475000D03*
X126860000Y-101475000D03*
X129400000Y-101475000D03*
X131940000Y-101475000D03*
X131940000Y-116715000D03*
X129400000Y-116715000D03*
X126860000Y-116715000D03*
X124320000Y-116715000D03*
X121780000Y-116715000D03*
X119240000Y-116715000D03*
X116700000Y-116715000D03*
X114160000Y-116715000D03*
X111620000Y-116715000D03*
X109080000Y-116715000D03*
X106540000Y-116715000D03*
X104000000Y-116715000D03*
D11*
X131750000Y-114250000D03*
X131750000Y-103750000D03*
D12*
X106465000Y-114250000D02*
X104000000Y-116715000D01*
X131750000Y-114250000D02*
X106465000Y-114250000D01*
G04 #@! TA.AperFunction,Conductor*
G36*
X103409254Y-100020185D02*
G01*
X103455009Y-100072989D01*
X103464953Y-100142147D01*
X103435928Y-100205703D01*
X103401234Y-100233553D01*
X103346633Y-100263103D01*
X103244379Y-100318440D01*
X103064323Y-100458582D01*
X103064319Y-100458586D01*
X102909787Y-100626451D01*
X102784989Y-100817470D01*
X102693335Y-101026422D01*
X102637323Y-101247608D01*
X102637321Y-101247616D01*
X102618481Y-101474994D01*
X102618481Y-101475005D01*
X102637321Y-101702383D01*
X102637323Y-101702391D01*
X102693335Y-101923577D01*
X102784989Y-102132529D01*
X102909787Y-102323548D01*
X103000950Y-102422576D01*
X103064323Y-102491417D01*
X103244381Y-102631561D01*
X103445050Y-102740158D01*
X103577534Y-102785640D01*
X103659435Y-102813757D01*
X103660857Y-102814245D01*
X103885915Y-102851800D01*
X104114085Y-102851800D01*
X104339143Y-102814245D01*
X104554950Y-102740158D01*
X104755619Y-102631561D01*
X104935677Y-102491417D01*
X105090213Y-102323547D01*
X105166191Y-102207252D01*
X105219337Y-102161896D01*
X105288568Y-102152472D01*
X105351904Y-102181973D01*
X105373809Y-102207253D01*
X105449787Y-102323548D01*
X105540950Y-102422576D01*
X105604323Y-102491417D01*
X105784381Y-102631561D01*
X105985050Y-102740158D01*
X106117534Y-102785640D01*
X106199435Y-102813757D01*
X106200857Y-102814245D01*
X106425915Y-102851800D01*
X106654085Y-102851800D01*
X106879143Y-102814245D01*
X107094950Y-102740158D01*
X107295619Y-102631561D01*
X107475677Y-102491417D01*
X107630213Y-102323547D01*
X107706491Y-102206795D01*
X107759636Y-102161439D01*
X107828868Y-102152015D01*
X107892203Y-102181517D01*
X107914108Y-102206796D01*
X107945934Y-102255510D01*
X108557368Y-101644077D01*
X108560594Y-101659597D01*
X108629658Y-101792886D01*
X108732123Y-101902598D01*
X108860388Y-101980598D01*
X108913166Y-101995385D01*
X108298088Y-102610462D01*
X108298089Y-102610463D01*
X108324651Y-102631137D01*
X108324652Y-102631139D01*
X108525250Y-102739698D01*
X108525255Y-102739700D01*
X108740976Y-102813757D01*
X108965958Y-102851300D01*
X109194042Y-102851300D01*
X109419023Y-102813757D01*
X109634744Y-102739700D01*
X109634749Y-102739698D01*
X109835346Y-102631139D01*
X109835349Y-102631137D01*
X109861910Y-102610463D01*
X109248603Y-101997156D01*
X109366412Y-101945985D01*
X109482862Y-101851246D01*
X109569433Y-101728603D01*
X109600300Y-101641748D01*
X110214063Y-102255511D01*
X110246190Y-102206337D01*
X110299336Y-102160980D01*
X110368567Y-102151556D01*
X110431903Y-102181057D01*
X110453808Y-102206337D01*
X110485934Y-102255510D01*
X111097368Y-101644077D01*
X111100594Y-101659597D01*
X111169658Y-101792886D01*
X111272123Y-101902598D01*
X111400388Y-101980598D01*
X111453166Y-101995385D01*
X110838088Y-102610462D01*
X110838089Y-102610463D01*
X110864651Y-102631137D01*
X110864652Y-102631139D01*
X111065250Y-102739698D01*
X111065255Y-102739700D01*
X111280976Y-102813757D01*
X111505958Y-102851300D01*
X111734042Y-102851300D01*
X111959023Y-102813757D01*
X112174744Y-102739700D01*
X112174749Y-102739698D01*
X112375346Y-102631139D01*
X112375349Y-102631137D01*
X112401910Y-102610463D01*
X111788603Y-101997156D01*
X111906412Y-101945985D01*
X112022862Y-101851246D01*
X112109433Y-101728603D01*
X112140300Y-101641748D01*
X112754063Y-102255511D01*
X112785891Y-102206795D01*
X112839037Y-102161438D01*
X112908268Y-102152014D01*
X112971604Y-102181515D01*
X112993509Y-102206795D01*
X113069787Y-102323548D01*
X113160950Y-102422576D01*
X113224323Y-102491417D01*
X113404381Y-102631561D01*
X113605050Y-102740158D01*
X113737534Y-102785640D01*
X113819435Y-102813757D01*
X113820857Y-102814245D01*
X114045915Y-102851800D01*
X114274085Y-102851800D01*
X114499143Y-102814245D01*
X114714950Y-102740158D01*
X114915619Y-102631561D01*
X115095677Y-102491417D01*
X115250213Y-102323547D01*
X115326191Y-102207252D01*
X115379337Y-102161896D01*
X115448568Y-102152472D01*
X115511904Y-102181973D01*
X115533809Y-102207253D01*
X115609787Y-102323548D01*
X115700950Y-102422576D01*
X115764323Y-102491417D01*
X115944381Y-102631561D01*
X116145050Y-102740158D01*
X116277534Y-102785640D01*
X116359435Y-102813757D01*
X116360857Y-102814245D01*
X116585915Y-102851800D01*
X116814085Y-102851800D01*
X117039143Y-102814245D01*
X117254950Y-102740158D01*
X117455619Y-102631561D01*
X117635677Y-102491417D01*
X117790213Y-102323547D01*
X117866191Y-102207252D01*
X117919337Y-102161896D01*
X117988568Y-102152472D01*
X118051904Y-102181973D01*
X118073809Y-102207253D01*
X118149787Y-102323548D01*
X118240950Y-102422576D01*
X118304323Y-102491417D01*
X118484381Y-102631561D01*
X118685050Y-102740158D01*
X118817534Y-102785640D01*
X118899435Y-102813757D01*
X118900857Y-102814245D01*
X119125915Y-102851800D01*
X119354085Y-102851800D01*
X119579143Y-102814245D01*
X119794950Y-102740158D01*
X119995619Y-102631561D01*
X120175677Y-102491417D01*
X120330213Y-102323547D01*
X120406191Y-102207252D01*
X120459337Y-102161896D01*
X120528568Y-102152472D01*
X120591904Y-102181973D01*
X120613809Y-102207253D01*
X120689787Y-102323548D01*
X120780950Y-102422576D01*
X120844323Y-102491417D01*
X121024381Y-102631561D01*
X121225050Y-102740158D01*
X121357534Y-102785640D01*
X121439435Y-102813757D01*
X121440857Y-102814245D01*
X121665915Y-102851800D01*
X121894085Y-102851800D01*
X122119143Y-102814245D01*
X122334950Y-102740158D01*
X122535619Y-102631561D01*
X122715677Y-102491417D01*
X122870213Y-102323547D01*
X122946191Y-102207252D01*
X122999337Y-102161896D01*
X123068568Y-102152472D01*
X123131904Y-102181973D01*
X123153809Y-102207253D01*
X123229787Y-102323548D01*
X123320950Y-102422576D01*
X123384323Y-102491417D01*
X123564381Y-102631561D01*
X123765050Y-102740158D01*
X123897534Y-102785640D01*
X123979435Y-102813757D01*
X123980857Y-102814245D01*
X124205915Y-102851800D01*
X124434085Y-102851800D01*
X124659143Y-102814245D01*
X124874950Y-102740158D01*
X125075619Y-102631561D01*
X125255677Y-102491417D01*
X125410213Y-102323547D01*
X125486191Y-102207252D01*
X125539337Y-102161896D01*
X125608568Y-102152472D01*
X125671904Y-102181973D01*
X125693809Y-102207253D01*
X125769787Y-102323548D01*
X125860950Y-102422576D01*
X125924323Y-102491417D01*
X126104381Y-102631561D01*
X126305050Y-102740158D01*
X126437534Y-102785640D01*
X126519435Y-102813757D01*
X126520857Y-102814245D01*
X126745915Y-102851800D01*
X126974085Y-102851800D01*
X127199143Y-102814245D01*
X127414950Y-102740158D01*
X127615619Y-102631561D01*
X127795677Y-102491417D01*
X127950213Y-102323547D01*
X128026191Y-102207252D01*
X128079337Y-102161896D01*
X128148568Y-102152472D01*
X128211904Y-102181973D01*
X128233809Y-102207253D01*
X128309787Y-102323548D01*
X128400950Y-102422576D01*
X128464323Y-102491417D01*
X128644381Y-102631561D01*
X128845050Y-102740158D01*
X128977534Y-102785640D01*
X129059435Y-102813757D01*
X129060857Y-102814245D01*
X129285915Y-102851800D01*
X129514085Y-102851800D01*
X129739143Y-102814245D01*
X129954950Y-102740158D01*
X129954957Y-102740154D01*
X129954960Y-102740153D01*
X130025423Y-102702020D01*
X130093751Y-102687424D01*
X130159123Y-102712086D01*
X130200784Y-102768177D01*
X130207799Y-102823676D01*
X130200000Y-102900012D01*
X130200000Y-103500000D01*
X131255148Y-103500000D01*
X131206441Y-103637047D01*
X131196123Y-103787886D01*
X131226884Y-103935915D01*
X131260090Y-104000000D01*
X130200000Y-104000000D01*
X130200000Y-104599985D01*
X130210493Y-104702689D01*
X130210494Y-104702696D01*
X130265641Y-104869118D01*
X130265643Y-104869123D01*
X130357684Y-105018344D01*
X130481655Y-105142315D01*
X130630876Y-105234356D01*
X130630881Y-105234358D01*
X130797303Y-105289505D01*
X130797310Y-105289506D01*
X130900014Y-105299999D01*
X130900027Y-105300000D01*
X131500000Y-105300000D01*
X131500000Y-104241683D01*
X131528819Y-104259209D01*
X131674404Y-104300000D01*
X131787622Y-104300000D01*
X131899783Y-104284584D01*
X132000000Y-104241053D01*
X132000000Y-105300000D01*
X132599973Y-105300000D01*
X132599985Y-105299999D01*
X132702689Y-105289506D01*
X132702696Y-105289505D01*
X132869118Y-105234358D01*
X132869123Y-105234356D01*
X133018344Y-105142315D01*
X133142315Y-105018344D01*
X133234356Y-104869123D01*
X133234359Y-104869116D01*
X133258023Y-104797702D01*
X133297795Y-104740257D01*
X133362310Y-104713433D01*
X133431086Y-104725747D01*
X133482287Y-104773290D01*
X133499729Y-104836698D01*
X133500227Y-113163201D01*
X133480546Y-113230241D01*
X133427745Y-113275999D01*
X133358587Y-113285947D01*
X133295030Y-113256926D01*
X133258522Y-113202213D01*
X133234814Y-113130666D01*
X133142711Y-112981345D01*
X133018655Y-112857289D01*
X133018651Y-112857286D01*
X132869337Y-112765187D01*
X132869335Y-112765186D01*
X132786065Y-112737593D01*
X132702797Y-112710001D01*
X132702795Y-112710000D01*
X132600015Y-112699500D01*
X132600008Y-112699500D01*
X130899992Y-112699500D01*
X130899984Y-112699500D01*
X130797204Y-112710000D01*
X130797203Y-112710001D01*
X130630664Y-112765186D01*
X130630662Y-112765187D01*
X130481345Y-112857287D01*
X130481345Y-112857288D01*
X130423468Y-112915163D01*
X130419199Y-112919052D01*
X130390247Y-112943056D01*
X130390240Y-112943063D01*
X130201383Y-113151659D01*
X130197362Y-113155709D01*
X130025126Y-113313921D01*
X130019821Y-113318278D01*
X129860802Y-113434781D01*
X129853893Y-113439173D01*
X129714803Y-113515212D01*
X129697400Y-113523051D01*
X129618145Y-113551642D01*
X129576067Y-113559000D01*
X106487752Y-113559000D01*
X106484007Y-113558887D01*
X106422973Y-113555195D01*
X106422966Y-113555195D01*
X106362826Y-113566216D01*
X106359126Y-113566779D01*
X106298414Y-113574152D01*
X106289203Y-113577645D01*
X106267606Y-113583666D01*
X106257916Y-113585442D01*
X106202156Y-113610537D01*
X106198697Y-113611969D01*
X106141527Y-113633652D01*
X106141523Y-113633654D01*
X106141518Y-113633656D01*
X106141513Y-113633659D01*
X106141510Y-113633661D01*
X106133410Y-113639251D01*
X106113881Y-113650266D01*
X106104900Y-113654308D01*
X106104895Y-113654311D01*
X106104894Y-113654312D01*
X106084371Y-113670389D01*
X106056764Y-113692017D01*
X106053750Y-113694235D01*
X106003416Y-113728980D01*
X106003414Y-113728981D01*
X105962863Y-113774754D01*
X105960296Y-113777480D01*
X104798550Y-114939226D01*
X104778167Y-114955253D01*
X104778229Y-114955339D01*
X104776438Y-114956613D01*
X104775396Y-114957433D01*
X104774635Y-114957896D01*
X104774618Y-114957908D01*
X104558072Y-115136608D01*
X104529503Y-115154283D01*
X104429427Y-115198755D01*
X104401849Y-115207330D01*
X104233448Y-115238798D01*
X103942707Y-115288730D01*
X103934423Y-115290455D01*
X103925226Y-115292371D01*
X103912549Y-115295483D01*
X103906210Y-115297039D01*
X103888882Y-115301954D01*
X103511891Y-115423532D01*
X103506250Y-115425604D01*
X103501524Y-115427341D01*
X103501520Y-115427343D01*
X103501516Y-115427344D01*
X103475826Y-115438980D01*
X103470378Y-115441144D01*
X103445064Y-115449835D01*
X103445047Y-115449843D01*
X103244383Y-115558437D01*
X103244379Y-115558439D01*
X103064323Y-115698582D01*
X103064319Y-115698586D01*
X102909787Y-115866451D01*
X102784989Y-116057470D01*
X102693335Y-116266422D01*
X102637323Y-116487608D01*
X102637321Y-116487616D01*
X102618481Y-116714994D01*
X102618481Y-116715005D01*
X102637321Y-116942383D01*
X102637323Y-116942391D01*
X102693335Y-117163577D01*
X102784989Y-117372529D01*
X102909787Y-117563548D01*
X103064319Y-117731413D01*
X103064330Y-117731424D01*
X103123718Y-117777647D01*
X103164531Y-117834357D01*
X103168206Y-117904130D01*
X103133574Y-117964813D01*
X103071633Y-117997140D01*
X103047556Y-117999500D01*
X101002710Y-117999500D01*
X100997303Y-117999264D01*
X100995015Y-117999063D01*
X100954554Y-117995523D01*
X100828238Y-117983082D01*
X100808299Y-117979454D01*
X100741669Y-117961601D01*
X100648435Y-117933319D01*
X100632027Y-117927040D01*
X100582894Y-117904130D01*
X100564618Y-117895607D01*
X100561605Y-117894101D01*
X100477671Y-117849236D01*
X100471331Y-117845341D01*
X100405170Y-117799015D01*
X100401398Y-117796154D01*
X100329190Y-117736895D01*
X100324688Y-117732815D01*
X100267182Y-117675309D01*
X100263103Y-117670808D01*
X100203844Y-117598600D01*
X100200983Y-117594828D01*
X100154657Y-117528667D01*
X100150762Y-117522327D01*
X100124857Y-117473864D01*
X100105888Y-117438375D01*
X100104406Y-117435411D01*
X100072958Y-117367971D01*
X100066682Y-117351570D01*
X100038403Y-117258349D01*
X100020541Y-117191685D01*
X100016918Y-117171771D01*
X100004482Y-117045519D01*
X100000735Y-117002695D01*
X100000500Y-116997293D01*
X100000500Y-101002705D01*
X100000736Y-100997299D01*
X100004476Y-100954554D01*
X100016918Y-100828223D01*
X100020542Y-100808309D01*
X100038402Y-100741653D01*
X100066683Y-100648424D01*
X100072953Y-100632037D01*
X100104420Y-100564558D01*
X100105872Y-100561653D01*
X100150764Y-100477666D01*
X100154657Y-100471331D01*
X100163581Y-100458586D01*
X100200994Y-100405155D01*
X100203827Y-100401420D01*
X100263122Y-100329168D01*
X100267162Y-100324710D01*
X100324710Y-100267162D01*
X100329168Y-100263122D01*
X100401420Y-100203827D01*
X100405155Y-100200994D01*
X100471334Y-100154654D01*
X100477666Y-100150764D01*
X100561653Y-100105872D01*
X100564558Y-100104420D01*
X100632037Y-100072953D01*
X100648424Y-100066683D01*
X100741653Y-100038402D01*
X100808309Y-100020542D01*
X100828223Y-100016918D01*
X100954542Y-100004477D01*
X100997305Y-100000735D01*
X101002706Y-100000500D01*
X103342215Y-100000500D01*
X103409254Y-100020185D01*
G37*
G04 #@! TD.AperFunction*
G04 #@! TA.AperFunction,Conductor*
G36*
X106020594Y-116899597D02*
G01*
X106089658Y-117032886D01*
X106192123Y-117142598D01*
X106320388Y-117220598D01*
X106373166Y-117235385D01*
X105758088Y-117850462D01*
X105759166Y-117867818D01*
X105743672Y-117935948D01*
X105693804Y-117984886D01*
X105635404Y-117999500D01*
X104952444Y-117999500D01*
X104885405Y-117979815D01*
X104839650Y-117927011D01*
X104829706Y-117857853D01*
X104858731Y-117794297D01*
X104876282Y-117777647D01*
X104935669Y-117731424D01*
X104935672Y-117731420D01*
X104935677Y-117731417D01*
X105090213Y-117563547D01*
X105166492Y-117446792D01*
X105219634Y-117401438D01*
X105288865Y-117392014D01*
X105352202Y-117421515D01*
X105374107Y-117446794D01*
X105405935Y-117495510D01*
X106017368Y-116884077D01*
X106020594Y-116899597D01*
G37*
G04 #@! TD.AperFunction*
G04 #@! TA.AperFunction,Conductor*
G36*
X107674063Y-117495511D02*
G01*
X107705891Y-117446795D01*
X107759037Y-117401438D01*
X107828268Y-117392014D01*
X107891604Y-117421515D01*
X107913509Y-117446795D01*
X107989787Y-117563548D01*
X108144319Y-117731413D01*
X108144330Y-117731424D01*
X108203718Y-117777647D01*
X108244531Y-117834357D01*
X108248206Y-117904130D01*
X108213574Y-117964813D01*
X108151633Y-117997140D01*
X108127556Y-117999500D01*
X107444595Y-117999500D01*
X107377556Y-117979815D01*
X107331801Y-117927011D01*
X107320833Y-117867820D01*
X107321910Y-117850463D01*
X106708603Y-117237156D01*
X106826412Y-117185985D01*
X106942862Y-117091246D01*
X107029433Y-116968603D01*
X107060300Y-116881748D01*
X107674063Y-117495511D01*
G37*
G04 #@! TD.AperFunction*
G04 #@! TA.AperFunction,Conductor*
G36*
X129618148Y-114948357D02*
G01*
X129697396Y-114976944D01*
X129714801Y-114984784D01*
X129853898Y-115060827D01*
X129860806Y-115065219D01*
X130019816Y-115181714D01*
X130025121Y-115186071D01*
X130089776Y-115245462D01*
X130125831Y-115305311D01*
X130123805Y-115375151D01*
X130084343Y-115432809D01*
X130019973Y-115459980D01*
X129959999Y-115450929D01*
X129959801Y-115451507D01*
X129956643Y-115450423D01*
X129956080Y-115450338D01*
X129954954Y-115449844D01*
X129954950Y-115449842D01*
X129954944Y-115449840D01*
X129954942Y-115449839D01*
X129739145Y-115375755D01*
X129514085Y-115338200D01*
X129285915Y-115338200D01*
X129060854Y-115375755D01*
X128845057Y-115449839D01*
X128845049Y-115449842D01*
X128644379Y-115558440D01*
X128464323Y-115698582D01*
X128464319Y-115698586D01*
X128309787Y-115866451D01*
X128233809Y-115982746D01*
X128180663Y-116028103D01*
X128111431Y-116037527D01*
X128048095Y-116008025D01*
X128026191Y-115982746D01*
X127950212Y-115866451D01*
X127795680Y-115698586D01*
X127795676Y-115698582D01*
X127683818Y-115611520D01*
X127615619Y-115558439D01*
X127414950Y-115449842D01*
X127414942Y-115449839D01*
X127199145Y-115375755D01*
X126974085Y-115338200D01*
X126745915Y-115338200D01*
X126520854Y-115375755D01*
X126305057Y-115449839D01*
X126305049Y-115449842D01*
X126104379Y-115558440D01*
X125924323Y-115698582D01*
X125924319Y-115698586D01*
X125769787Y-115866451D01*
X125693809Y-115982746D01*
X125640663Y-116028103D01*
X125571431Y-116037527D01*
X125508095Y-116008025D01*
X125486191Y-115982746D01*
X125410212Y-115866451D01*
X125255680Y-115698586D01*
X125255676Y-115698582D01*
X125143818Y-115611520D01*
X125075619Y-115558439D01*
X124874950Y-115449842D01*
X124874942Y-115449839D01*
X124659145Y-115375755D01*
X124434085Y-115338200D01*
X124205915Y-115338200D01*
X123980854Y-115375755D01*
X123765057Y-115449839D01*
X123765049Y-115449842D01*
X123564379Y-115558440D01*
X123384323Y-115698582D01*
X123384319Y-115698586D01*
X123229787Y-115866451D01*
X123153809Y-115982746D01*
X123100663Y-116028103D01*
X123031431Y-116037527D01*
X122968095Y-116008025D01*
X122946191Y-115982746D01*
X122870212Y-115866451D01*
X122715680Y-115698586D01*
X122715676Y-115698582D01*
X122603818Y-115611520D01*
X122535619Y-115558439D01*
X122334950Y-115449842D01*
X122334942Y-115449839D01*
X122119145Y-115375755D01*
X121894085Y-115338200D01*
X121665915Y-115338200D01*
X121440854Y-115375755D01*
X121225057Y-115449839D01*
X121225049Y-115449842D01*
X121024379Y-115558440D01*
X120844323Y-115698582D01*
X120844319Y-115698586D01*
X120689787Y-115866451D01*
X120613809Y-115982746D01*
X120560663Y-116028103D01*
X120491431Y-116037527D01*
X120428095Y-116008025D01*
X120406191Y-115982746D01*
X120330212Y-115866451D01*
X120175680Y-115698586D01*
X120175676Y-115698582D01*
X120063818Y-115611520D01*
X119995619Y-115558439D01*
X119794950Y-115449842D01*
X119794942Y-115449839D01*
X119579145Y-115375755D01*
X119354085Y-115338200D01*
X119125915Y-115338200D01*
X118900854Y-115375755D01*
X118685057Y-115449839D01*
X118685049Y-115449842D01*
X118484379Y-115558440D01*
X118304323Y-115698582D01*
X118304319Y-115698586D01*
X118149787Y-115866451D01*
X118073809Y-115982746D01*
X118020663Y-116028103D01*
X117951431Y-116037527D01*
X117888095Y-116008025D01*
X117866191Y-115982746D01*
X117790212Y-115866451D01*
X117635680Y-115698586D01*
X117635676Y-115698582D01*
X117523818Y-115611520D01*
X117455619Y-115558439D01*
X117254950Y-115449842D01*
X117254942Y-115449839D01*
X117039145Y-115375755D01*
X116814085Y-115338200D01*
X116585915Y-115338200D01*
X116360854Y-115375755D01*
X116145057Y-115449839D01*
X116145049Y-115449842D01*
X115944379Y-115558440D01*
X115764323Y-115698582D01*
X115764319Y-115698586D01*
X115609787Y-115866451D01*
X115533809Y-115982746D01*
X115480663Y-116028103D01*
X115411431Y-116037527D01*
X115348095Y-116008025D01*
X115326191Y-115982746D01*
X115250212Y-115866451D01*
X115095680Y-115698586D01*
X115095676Y-115698582D01*
X114983818Y-115611520D01*
X114915619Y-115558439D01*
X114714950Y-115449842D01*
X114714942Y-115449839D01*
X114499145Y-115375755D01*
X114274085Y-115338200D01*
X114045915Y-115338200D01*
X113820854Y-115375755D01*
X113605057Y-115449839D01*
X113605049Y-115449842D01*
X113404379Y-115558440D01*
X113224323Y-115698582D01*
X113224319Y-115698586D01*
X113069787Y-115866451D01*
X112993809Y-115982746D01*
X112940663Y-116028103D01*
X112871431Y-116037527D01*
X112808095Y-116008025D01*
X112786191Y-115982746D01*
X112710212Y-115866451D01*
X112555680Y-115698586D01*
X112555676Y-115698582D01*
X112443818Y-115611520D01*
X112375619Y-115558439D01*
X112174950Y-115449842D01*
X112174942Y-115449839D01*
X111959145Y-115375755D01*
X111734085Y-115338200D01*
X111505915Y-115338200D01*
X111280854Y-115375755D01*
X111065057Y-115449839D01*
X111065049Y-115449842D01*
X110864379Y-115558440D01*
X110684323Y-115698582D01*
X110684319Y-115698586D01*
X110529787Y-115866451D01*
X110453809Y-115982746D01*
X110400663Y-116028103D01*
X110331431Y-116037527D01*
X110268095Y-116008025D01*
X110246191Y-115982746D01*
X110170212Y-115866451D01*
X110015680Y-115698586D01*
X110015676Y-115698582D01*
X109903818Y-115611520D01*
X109835619Y-115558439D01*
X109634950Y-115449842D01*
X109634942Y-115449839D01*
X109419145Y-115375755D01*
X109194085Y-115338200D01*
X108965915Y-115338200D01*
X108740854Y-115375755D01*
X108525057Y-115449839D01*
X108525049Y-115449842D01*
X108324379Y-115558440D01*
X108144323Y-115698582D01*
X108144319Y-115698586D01*
X107989787Y-115866452D01*
X107989784Y-115866454D01*
X107913508Y-115983204D01*
X107860362Y-116028561D01*
X107791130Y-116037984D01*
X107727795Y-116008482D01*
X107705891Y-115983203D01*
X107674063Y-115934487D01*
X107062630Y-116545920D01*
X107059406Y-116530403D01*
X106990342Y-116397114D01*
X106887877Y-116287402D01*
X106759612Y-116209402D01*
X106706832Y-116194613D01*
X107321910Y-115579536D01*
X107321909Y-115579535D01*
X107295349Y-115558862D01*
X107295348Y-115558861D01*
X107094749Y-115450301D01*
X107094744Y-115450299D01*
X106879023Y-115376242D01*
X106654042Y-115338700D01*
X106652884Y-115338700D01*
X106652425Y-115338565D01*
X106648932Y-115338276D01*
X106648991Y-115337557D01*
X106585845Y-115319015D01*
X106540090Y-115266211D01*
X106530146Y-115197053D01*
X106559171Y-115133497D01*
X106565203Y-115127019D01*
X106714903Y-114977319D01*
X106776226Y-114943834D01*
X106802584Y-114941000D01*
X129576072Y-114941000D01*
X129618148Y-114948357D01*
G37*
G04 #@! TD.AperFunction*
G04 #@! TA.AperFunction,Conductor*
G36*
X108490304Y-100020185D02*
G01*
X108536059Y-100072989D01*
X108546003Y-100142147D01*
X108516978Y-100205703D01*
X108482283Y-100233555D01*
X108324652Y-100318860D01*
X108324646Y-100318864D01*
X108298089Y-100339534D01*
X108298089Y-100339536D01*
X108911396Y-100952843D01*
X108793588Y-101004015D01*
X108677138Y-101098754D01*
X108590567Y-101221397D01*
X108559699Y-101308252D01*
X107945934Y-100694487D01*
X107914108Y-100743203D01*
X107860962Y-100788560D01*
X107791730Y-100797984D01*
X107728394Y-100768482D01*
X107706490Y-100743204D01*
X107644567Y-100648424D01*
X107630213Y-100626453D01*
X107630211Y-100626451D01*
X107630210Y-100626449D01*
X107475680Y-100458586D01*
X107475676Y-100458582D01*
X107385648Y-100388511D01*
X107295619Y-100318439D01*
X107138766Y-100233554D01*
X107089177Y-100184335D01*
X107074069Y-100116119D01*
X107098239Y-100050563D01*
X107154015Y-100008482D01*
X107197785Y-100000500D01*
X108423265Y-100000500D01*
X108490304Y-100020185D01*
G37*
G04 #@! TD.AperFunction*
G04 #@! TA.AperFunction,Conductor*
G36*
X111030304Y-100020185D02*
G01*
X111076059Y-100072989D01*
X111086003Y-100142147D01*
X111056978Y-100205703D01*
X111022283Y-100233555D01*
X110864652Y-100318860D01*
X110864646Y-100318864D01*
X110838089Y-100339534D01*
X110838089Y-100339536D01*
X111451396Y-100952843D01*
X111333588Y-101004015D01*
X111217138Y-101098754D01*
X111130567Y-101221397D01*
X111099699Y-101308252D01*
X110485934Y-100694487D01*
X110453807Y-100743662D01*
X110400661Y-100789018D01*
X110331430Y-100798442D01*
X110268094Y-100768940D01*
X110246190Y-100743661D01*
X110214063Y-100694487D01*
X109602630Y-101305920D01*
X109599406Y-101290403D01*
X109530342Y-101157114D01*
X109427877Y-101047402D01*
X109299612Y-100969402D01*
X109246833Y-100954614D01*
X109861910Y-100339537D01*
X109861909Y-100339535D01*
X109835349Y-100318862D01*
X109835348Y-100318861D01*
X109677717Y-100233555D01*
X109628127Y-100184335D01*
X109613019Y-100116118D01*
X109637190Y-100050563D01*
X109692966Y-100008482D01*
X109736735Y-100000500D01*
X110963265Y-100000500D01*
X111030304Y-100020185D01*
G37*
G04 #@! TD.AperFunction*
G04 #@! TA.AperFunction,Conductor*
G36*
X113569254Y-100020185D02*
G01*
X113615009Y-100072989D01*
X113624953Y-100142147D01*
X113595928Y-100205703D01*
X113561234Y-100233553D01*
X113506633Y-100263103D01*
X113404379Y-100318440D01*
X113224323Y-100458582D01*
X113224319Y-100458586D01*
X113069787Y-100626452D01*
X113069784Y-100626454D01*
X112993508Y-100743204D01*
X112940362Y-100788561D01*
X112871130Y-100797984D01*
X112807795Y-100768482D01*
X112785891Y-100743203D01*
X112754063Y-100694487D01*
X112142630Y-101305920D01*
X112139406Y-101290403D01*
X112070342Y-101157114D01*
X111967877Y-101047402D01*
X111839612Y-100969402D01*
X111786833Y-100954614D01*
X112401910Y-100339537D01*
X112401909Y-100339535D01*
X112375349Y-100318862D01*
X112375348Y-100318861D01*
X112217717Y-100233555D01*
X112168127Y-100184335D01*
X112153019Y-100116118D01*
X112177190Y-100050563D01*
X112232966Y-100008482D01*
X112276735Y-100000500D01*
X113502215Y-100000500D01*
X113569254Y-100020185D01*
G37*
G04 #@! TD.AperFunction*
G04 #@! TA.AperFunction,Conductor*
G36*
X105112089Y-115348539D02*
G01*
X105366460Y-115602910D01*
X105369887Y-115611183D01*
X105367211Y-115618630D01*
X105133721Y-115901564D01*
X105024327Y-116147737D01*
X105024326Y-116147742D01*
X104978620Y-116392340D01*
X104929573Y-116677927D01*
X104929177Y-116679538D01*
X104813485Y-117038285D01*
X104807685Y-117045107D01*
X104798759Y-117045829D01*
X104797884Y-117045508D01*
X104003785Y-116717562D01*
X103997447Y-116711238D01*
X103669491Y-115917114D01*
X103669500Y-115908160D01*
X103675839Y-115901835D01*
X103676691Y-115901522D01*
X104035465Y-115785818D01*
X104037066Y-115785425D01*
X104322658Y-115736378D01*
X104567258Y-115690673D01*
X104813434Y-115581277D01*
X105096372Y-115347787D01*
X105104931Y-115345165D01*
X105112089Y-115348539D01*
G37*
G04 #@! TD.AperFunction*
G04 #@! TA.AperFunction,Conductor*
G36*
X130781502Y-113281513D02*
G01*
X130781918Y-113281909D01*
X131742714Y-114241723D01*
X131746145Y-114249994D01*
X131742722Y-114258269D01*
X131742714Y-114258277D01*
X130781918Y-115218090D01*
X130773643Y-115221513D01*
X130765372Y-115218082D01*
X130764976Y-115217666D01*
X130558580Y-114989696D01*
X130343936Y-114792528D01*
X130343933Y-114792526D01*
X130282258Y-114747341D01*
X130129290Y-114635272D01*
X129914645Y-114517929D01*
X129707731Y-114443288D01*
X129701111Y-114437257D01*
X129700001Y-114432282D01*
X129700001Y-114067717D01*
X129703428Y-114059444D01*
X129707729Y-114056712D01*
X129914645Y-113982070D01*
X130129290Y-113864727D01*
X130343934Y-113707472D01*
X130558579Y-113510304D01*
X130764977Y-113282332D01*
X130773069Y-113278500D01*
X130781502Y-113281513D01*
G37*
G04 #@! TD.AperFunction*
M02*
