G04 #@! TF.GenerationSoftware,KiCad,Pcbnew,7.0.8*
G04 #@! TF.CreationDate,2024-04-01T14:50:31+01:00*
G04 #@! TF.ProjectId,daughterboard,64617567-6874-4657-9262-6f6172642e6b,rev?*
G04 #@! TF.SameCoordinates,Original*
G04 #@! TF.FileFunction,Legend,Top*
G04 #@! TF.FilePolarity,Positive*
%FSLAX46Y46*%
G04 Gerber Fmt 4.6, Leading zero omitted, Abs format (unit mm)*
G04 Created by KiCad (PCBNEW 7.0.8) date 2024-04-01 14:50:31*
%MOMM*%
%LPD*%
G01*
G04 APERTURE LIST*
G04 Aperture macros list*
%AMRoundRect*
0 Rectangle with rounded corners*
0 $1 Rounding radius*
0 $2 $3 $4 $5 $6 $7 $8 $9 X,Y pos of 4 corners*
0 Add a 4 corners polygon primitive as box body*
4,1,4,$2,$3,$4,$5,$6,$7,$8,$9,$2,$3,0*
0 Add four circle primitives for the rounded corners*
1,1,$1+$1,$2,$3*
1,1,$1+$1,$4,$5*
1,1,$1+$1,$6,$7*
1,1,$1+$1,$8,$9*
0 Add four rect primitives between the rounded corners*
20,1,$1+$1,$2,$3,$4,$5,0*
20,1,$1+$1,$4,$5,$6,$7,0*
20,1,$1+$1,$6,$7,$8,$9,0*
20,1,$1+$1,$8,$9,$2,$3,0*%
G04 Aperture macros list end*
%ADD10C,0.150000*%
%ADD11C,0.381000*%
%ADD12C,1.752600*%
%ADD13RoundRect,0.250001X-0.799999X-0.799999X0.799999X-0.799999X0.799999X0.799999X-0.799999X0.799999X0*%
G04 APERTURE END LIST*
D10*
X108680390Y-104243523D02*
X108642295Y-104319713D01*
X108642295Y-104319713D02*
X108642295Y-104433999D01*
X108642295Y-104433999D02*
X108680390Y-104548285D01*
X108680390Y-104548285D02*
X108756580Y-104624475D01*
X108756580Y-104624475D02*
X108832771Y-104662570D01*
X108832771Y-104662570D02*
X108985152Y-104700666D01*
X108985152Y-104700666D02*
X109099438Y-104700666D01*
X109099438Y-104700666D02*
X109251819Y-104662570D01*
X109251819Y-104662570D02*
X109328009Y-104624475D01*
X109328009Y-104624475D02*
X109404200Y-104548285D01*
X109404200Y-104548285D02*
X109442295Y-104433999D01*
X109442295Y-104433999D02*
X109442295Y-104357808D01*
X109442295Y-104357808D02*
X109404200Y-104243523D01*
X109404200Y-104243523D02*
X109366104Y-104205427D01*
X109366104Y-104205427D02*
X109099438Y-104205427D01*
X109099438Y-104205427D02*
X109099438Y-104357808D01*
X109442295Y-103862570D02*
X108642295Y-103862570D01*
X108642295Y-103862570D02*
X109442295Y-103405427D01*
X109442295Y-103405427D02*
X108642295Y-103405427D01*
X109442295Y-103024475D02*
X108642295Y-103024475D01*
X108642295Y-103024475D02*
X108642295Y-102833999D01*
X108642295Y-102833999D02*
X108680390Y-102719713D01*
X108680390Y-102719713D02*
X108756580Y-102643523D01*
X108756580Y-102643523D02*
X108832771Y-102605428D01*
X108832771Y-102605428D02*
X108985152Y-102567332D01*
X108985152Y-102567332D02*
X109099438Y-102567332D01*
X109099438Y-102567332D02*
X109251819Y-102605428D01*
X109251819Y-102605428D02*
X109328009Y-102643523D01*
X109328009Y-102643523D02*
X109404200Y-102719713D01*
X109404200Y-102719713D02*
X109442295Y-102833999D01*
X109442295Y-102833999D02*
X109442295Y-103024475D01*
X104362295Y-115121095D02*
X103981342Y-115387762D01*
X104362295Y-115578238D02*
X103562295Y-115578238D01*
X103562295Y-115578238D02*
X103562295Y-115273476D01*
X103562295Y-115273476D02*
X103600390Y-115197286D01*
X103600390Y-115197286D02*
X103638485Y-115159191D01*
X103638485Y-115159191D02*
X103714676Y-115121095D01*
X103714676Y-115121095D02*
X103828961Y-115121095D01*
X103828961Y-115121095D02*
X103905152Y-115159191D01*
X103905152Y-115159191D02*
X103943247Y-115197286D01*
X103943247Y-115197286D02*
X103981342Y-115273476D01*
X103981342Y-115273476D02*
X103981342Y-115578238D01*
X104133723Y-114816334D02*
X104133723Y-114435381D01*
X104362295Y-114892524D02*
X103562295Y-114625857D01*
X103562295Y-114625857D02*
X104362295Y-114359191D01*
X103562295Y-114168715D02*
X104362295Y-113978239D01*
X104362295Y-113978239D02*
X103790866Y-113825858D01*
X103790866Y-113825858D02*
X104362295Y-113673477D01*
X104362295Y-113673477D02*
X103562295Y-113483001D01*
X116262295Y-115432190D02*
X116262295Y-115356000D01*
X116262295Y-115356000D02*
X116300390Y-115279809D01*
X116300390Y-115279809D02*
X116338485Y-115241714D01*
X116338485Y-115241714D02*
X116414676Y-115203619D01*
X116414676Y-115203619D02*
X116567057Y-115165524D01*
X116567057Y-115165524D02*
X116757533Y-115165524D01*
X116757533Y-115165524D02*
X116909914Y-115203619D01*
X116909914Y-115203619D02*
X116986104Y-115241714D01*
X116986104Y-115241714D02*
X117024200Y-115279809D01*
X117024200Y-115279809D02*
X117062295Y-115356000D01*
X117062295Y-115356000D02*
X117062295Y-115432190D01*
X117062295Y-115432190D02*
X117024200Y-115508381D01*
X117024200Y-115508381D02*
X116986104Y-115546476D01*
X116986104Y-115546476D02*
X116909914Y-115584571D01*
X116909914Y-115584571D02*
X116757533Y-115622667D01*
X116757533Y-115622667D02*
X116567057Y-115622667D01*
X116567057Y-115622667D02*
X116414676Y-115584571D01*
X116414676Y-115584571D02*
X116338485Y-115546476D01*
X116338485Y-115546476D02*
X116300390Y-115508381D01*
X116300390Y-115508381D02*
X116262295Y-115432190D01*
X116338485Y-114860762D02*
X116300390Y-114822666D01*
X116300390Y-114822666D02*
X116262295Y-114746476D01*
X116262295Y-114746476D02*
X116262295Y-114556000D01*
X116262295Y-114556000D02*
X116300390Y-114479809D01*
X116300390Y-114479809D02*
X116338485Y-114441714D01*
X116338485Y-114441714D02*
X116414676Y-114403619D01*
X116414676Y-114403619D02*
X116490866Y-114403619D01*
X116490866Y-114403619D02*
X116605152Y-114441714D01*
X116605152Y-114441714D02*
X117062295Y-114898857D01*
X117062295Y-114898857D02*
X117062295Y-114403619D01*
X117062295Y-114022666D02*
X117062295Y-113870285D01*
X117062295Y-113870285D02*
X117024200Y-113794095D01*
X117024200Y-113794095D02*
X116986104Y-113755999D01*
X116986104Y-113755999D02*
X116871819Y-113679809D01*
X116871819Y-113679809D02*
X116719438Y-113641714D01*
X116719438Y-113641714D02*
X116414676Y-113641714D01*
X116414676Y-113641714D02*
X116338485Y-113679809D01*
X116338485Y-113679809D02*
X116300390Y-113717904D01*
X116300390Y-113717904D02*
X116262295Y-113794095D01*
X116262295Y-113794095D02*
X116262295Y-113946476D01*
X116262295Y-113946476D02*
X116300390Y-114022666D01*
X116300390Y-114022666D02*
X116338485Y-114060761D01*
X116338485Y-114060761D02*
X116414676Y-114098857D01*
X116414676Y-114098857D02*
X116605152Y-114098857D01*
X116605152Y-114098857D02*
X116681342Y-114060761D01*
X116681342Y-114060761D02*
X116719438Y-114022666D01*
X116719438Y-114022666D02*
X116757533Y-113946476D01*
X116757533Y-113946476D02*
X116757533Y-113794095D01*
X116757533Y-113794095D02*
X116719438Y-113717904D01*
X116719438Y-113717904D02*
X116681342Y-113679809D01*
X116681342Y-113679809D02*
X116605152Y-113641714D01*
X118832295Y-104357809D02*
X118832295Y-104281619D01*
X118832295Y-104281619D02*
X118870390Y-104205428D01*
X118870390Y-104205428D02*
X118908485Y-104167333D01*
X118908485Y-104167333D02*
X118984676Y-104129238D01*
X118984676Y-104129238D02*
X119137057Y-104091143D01*
X119137057Y-104091143D02*
X119327533Y-104091143D01*
X119327533Y-104091143D02*
X119479914Y-104129238D01*
X119479914Y-104129238D02*
X119556104Y-104167333D01*
X119556104Y-104167333D02*
X119594200Y-104205428D01*
X119594200Y-104205428D02*
X119632295Y-104281619D01*
X119632295Y-104281619D02*
X119632295Y-104357809D01*
X119632295Y-104357809D02*
X119594200Y-104434000D01*
X119594200Y-104434000D02*
X119556104Y-104472095D01*
X119556104Y-104472095D02*
X119479914Y-104510190D01*
X119479914Y-104510190D02*
X119327533Y-104548286D01*
X119327533Y-104548286D02*
X119137057Y-104548286D01*
X119137057Y-104548286D02*
X118984676Y-104510190D01*
X118984676Y-104510190D02*
X118908485Y-104472095D01*
X118908485Y-104472095D02*
X118870390Y-104434000D01*
X118870390Y-104434000D02*
X118832295Y-104357809D01*
X118908485Y-103786381D02*
X118870390Y-103748285D01*
X118870390Y-103748285D02*
X118832295Y-103672095D01*
X118832295Y-103672095D02*
X118832295Y-103481619D01*
X118832295Y-103481619D02*
X118870390Y-103405428D01*
X118870390Y-103405428D02*
X118908485Y-103367333D01*
X118908485Y-103367333D02*
X118984676Y-103329238D01*
X118984676Y-103329238D02*
X119060866Y-103329238D01*
X119060866Y-103329238D02*
X119175152Y-103367333D01*
X119175152Y-103367333D02*
X119632295Y-103824476D01*
X119632295Y-103824476D02*
X119632295Y-103329238D01*
X118908485Y-103024476D02*
X118870390Y-102986380D01*
X118870390Y-102986380D02*
X118832295Y-102910190D01*
X118832295Y-102910190D02*
X118832295Y-102719714D01*
X118832295Y-102719714D02*
X118870390Y-102643523D01*
X118870390Y-102643523D02*
X118908485Y-102605428D01*
X118908485Y-102605428D02*
X118984676Y-102567333D01*
X118984676Y-102567333D02*
X119060866Y-102567333D01*
X119060866Y-102567333D02*
X119175152Y-102605428D01*
X119175152Y-102605428D02*
X119632295Y-103062571D01*
X119632295Y-103062571D02*
X119632295Y-102567333D01*
X111220390Y-104243523D02*
X111182295Y-104319713D01*
X111182295Y-104319713D02*
X111182295Y-104433999D01*
X111182295Y-104433999D02*
X111220390Y-104548285D01*
X111220390Y-104548285D02*
X111296580Y-104624475D01*
X111296580Y-104624475D02*
X111372771Y-104662570D01*
X111372771Y-104662570D02*
X111525152Y-104700666D01*
X111525152Y-104700666D02*
X111639438Y-104700666D01*
X111639438Y-104700666D02*
X111791819Y-104662570D01*
X111791819Y-104662570D02*
X111868009Y-104624475D01*
X111868009Y-104624475D02*
X111944200Y-104548285D01*
X111944200Y-104548285D02*
X111982295Y-104433999D01*
X111982295Y-104433999D02*
X111982295Y-104357808D01*
X111982295Y-104357808D02*
X111944200Y-104243523D01*
X111944200Y-104243523D02*
X111906104Y-104205427D01*
X111906104Y-104205427D02*
X111639438Y-104205427D01*
X111639438Y-104205427D02*
X111639438Y-104357808D01*
X111982295Y-103862570D02*
X111182295Y-103862570D01*
X111182295Y-103862570D02*
X111982295Y-103405427D01*
X111982295Y-103405427D02*
X111182295Y-103405427D01*
X111982295Y-103024475D02*
X111182295Y-103024475D01*
X111182295Y-103024475D02*
X111182295Y-102833999D01*
X111182295Y-102833999D02*
X111220390Y-102719713D01*
X111220390Y-102719713D02*
X111296580Y-102643523D01*
X111296580Y-102643523D02*
X111372771Y-102605428D01*
X111372771Y-102605428D02*
X111525152Y-102567332D01*
X111525152Y-102567332D02*
X111639438Y-102567332D01*
X111639438Y-102567332D02*
X111791819Y-102605428D01*
X111791819Y-102605428D02*
X111868009Y-102643523D01*
X111868009Y-102643523D02*
X111944200Y-102719713D01*
X111944200Y-102719713D02*
X111982295Y-102833999D01*
X111982295Y-102833999D02*
X111982295Y-103024475D01*
X116332295Y-104357809D02*
X116332295Y-104281619D01*
X116332295Y-104281619D02*
X116370390Y-104205428D01*
X116370390Y-104205428D02*
X116408485Y-104167333D01*
X116408485Y-104167333D02*
X116484676Y-104129238D01*
X116484676Y-104129238D02*
X116637057Y-104091143D01*
X116637057Y-104091143D02*
X116827533Y-104091143D01*
X116827533Y-104091143D02*
X116979914Y-104129238D01*
X116979914Y-104129238D02*
X117056104Y-104167333D01*
X117056104Y-104167333D02*
X117094200Y-104205428D01*
X117094200Y-104205428D02*
X117132295Y-104281619D01*
X117132295Y-104281619D02*
X117132295Y-104357809D01*
X117132295Y-104357809D02*
X117094200Y-104434000D01*
X117094200Y-104434000D02*
X117056104Y-104472095D01*
X117056104Y-104472095D02*
X116979914Y-104510190D01*
X116979914Y-104510190D02*
X116827533Y-104548286D01*
X116827533Y-104548286D02*
X116637057Y-104548286D01*
X116637057Y-104548286D02*
X116484676Y-104510190D01*
X116484676Y-104510190D02*
X116408485Y-104472095D01*
X116408485Y-104472095D02*
X116370390Y-104434000D01*
X116370390Y-104434000D02*
X116332295Y-104357809D01*
X116408485Y-103786381D02*
X116370390Y-103748285D01*
X116370390Y-103748285D02*
X116332295Y-103672095D01*
X116332295Y-103672095D02*
X116332295Y-103481619D01*
X116332295Y-103481619D02*
X116370390Y-103405428D01*
X116370390Y-103405428D02*
X116408485Y-103367333D01*
X116408485Y-103367333D02*
X116484676Y-103329238D01*
X116484676Y-103329238D02*
X116560866Y-103329238D01*
X116560866Y-103329238D02*
X116675152Y-103367333D01*
X116675152Y-103367333D02*
X117132295Y-103824476D01*
X117132295Y-103824476D02*
X117132295Y-103329238D01*
X116332295Y-102833999D02*
X116332295Y-102757809D01*
X116332295Y-102757809D02*
X116370390Y-102681618D01*
X116370390Y-102681618D02*
X116408485Y-102643523D01*
X116408485Y-102643523D02*
X116484676Y-102605428D01*
X116484676Y-102605428D02*
X116637057Y-102567333D01*
X116637057Y-102567333D02*
X116827533Y-102567333D01*
X116827533Y-102567333D02*
X116979914Y-102605428D01*
X116979914Y-102605428D02*
X117056104Y-102643523D01*
X117056104Y-102643523D02*
X117094200Y-102681618D01*
X117094200Y-102681618D02*
X117132295Y-102757809D01*
X117132295Y-102757809D02*
X117132295Y-102833999D01*
X117132295Y-102833999D02*
X117094200Y-102910190D01*
X117094200Y-102910190D02*
X117056104Y-102948285D01*
X117056104Y-102948285D02*
X116979914Y-102986380D01*
X116979914Y-102986380D02*
X116827533Y-103024476D01*
X116827533Y-103024476D02*
X116637057Y-103024476D01*
X116637057Y-103024476D02*
X116484676Y-102986380D01*
X116484676Y-102986380D02*
X116408485Y-102948285D01*
X116408485Y-102948285D02*
X116370390Y-102910190D01*
X116370390Y-102910190D02*
X116332295Y-102833999D01*
X106140390Y-115159190D02*
X106102295Y-115235380D01*
X106102295Y-115235380D02*
X106102295Y-115349666D01*
X106102295Y-115349666D02*
X106140390Y-115463952D01*
X106140390Y-115463952D02*
X106216580Y-115540142D01*
X106216580Y-115540142D02*
X106292771Y-115578237D01*
X106292771Y-115578237D02*
X106445152Y-115616333D01*
X106445152Y-115616333D02*
X106559438Y-115616333D01*
X106559438Y-115616333D02*
X106711819Y-115578237D01*
X106711819Y-115578237D02*
X106788009Y-115540142D01*
X106788009Y-115540142D02*
X106864200Y-115463952D01*
X106864200Y-115463952D02*
X106902295Y-115349666D01*
X106902295Y-115349666D02*
X106902295Y-115273475D01*
X106902295Y-115273475D02*
X106864200Y-115159190D01*
X106864200Y-115159190D02*
X106826104Y-115121094D01*
X106826104Y-115121094D02*
X106559438Y-115121094D01*
X106559438Y-115121094D02*
X106559438Y-115273475D01*
X106902295Y-114778237D02*
X106102295Y-114778237D01*
X106102295Y-114778237D02*
X106902295Y-114321094D01*
X106902295Y-114321094D02*
X106102295Y-114321094D01*
X106902295Y-113940142D02*
X106102295Y-113940142D01*
X106102295Y-113940142D02*
X106102295Y-113749666D01*
X106102295Y-113749666D02*
X106140390Y-113635380D01*
X106140390Y-113635380D02*
X106216580Y-113559190D01*
X106216580Y-113559190D02*
X106292771Y-113521095D01*
X106292771Y-113521095D02*
X106445152Y-113482999D01*
X106445152Y-113482999D02*
X106559438Y-113482999D01*
X106559438Y-113482999D02*
X106711819Y-113521095D01*
X106711819Y-113521095D02*
X106788009Y-113559190D01*
X106788009Y-113559190D02*
X106864200Y-113635380D01*
X106864200Y-113635380D02*
X106902295Y-113749666D01*
X106902295Y-113749666D02*
X106902295Y-113940142D01*
X124682295Y-115165524D02*
X124682295Y-115622667D01*
X124682295Y-115394095D02*
X123882295Y-115394095D01*
X123882295Y-115394095D02*
X123996580Y-115470286D01*
X123996580Y-115470286D02*
X124072771Y-115546476D01*
X124072771Y-115546476D02*
X124110866Y-115622667D01*
X124682295Y-114403619D02*
X124682295Y-114860762D01*
X124682295Y-114632190D02*
X123882295Y-114632190D01*
X123882295Y-114632190D02*
X123996580Y-114708381D01*
X123996580Y-114708381D02*
X124072771Y-114784571D01*
X124072771Y-114784571D02*
X124110866Y-114860762D01*
X123882295Y-114136952D02*
X123882295Y-113641714D01*
X123882295Y-113641714D02*
X124187057Y-113908380D01*
X124187057Y-113908380D02*
X124187057Y-113794095D01*
X124187057Y-113794095D02*
X124225152Y-113717904D01*
X124225152Y-113717904D02*
X124263247Y-113679809D01*
X124263247Y-113679809D02*
X124339438Y-113641714D01*
X124339438Y-113641714D02*
X124529914Y-113641714D01*
X124529914Y-113641714D02*
X124606104Y-113679809D01*
X124606104Y-113679809D02*
X124644200Y-113717904D01*
X124644200Y-113717904D02*
X124682295Y-113794095D01*
X124682295Y-113794095D02*
X124682295Y-114022666D01*
X124682295Y-114022666D02*
X124644200Y-114098857D01*
X124644200Y-114098857D02*
X124606104Y-114136952D01*
X124682295Y-104091143D02*
X124682295Y-104548286D01*
X124682295Y-104319714D02*
X123882295Y-104319714D01*
X123882295Y-104319714D02*
X123996580Y-104395905D01*
X123996580Y-104395905D02*
X124072771Y-104472095D01*
X124072771Y-104472095D02*
X124110866Y-104548286D01*
X123882295Y-103595904D02*
X123882295Y-103519714D01*
X123882295Y-103519714D02*
X123920390Y-103443523D01*
X123920390Y-103443523D02*
X123958485Y-103405428D01*
X123958485Y-103405428D02*
X124034676Y-103367333D01*
X124034676Y-103367333D02*
X124187057Y-103329238D01*
X124187057Y-103329238D02*
X124377533Y-103329238D01*
X124377533Y-103329238D02*
X124529914Y-103367333D01*
X124529914Y-103367333D02*
X124606104Y-103405428D01*
X124606104Y-103405428D02*
X124644200Y-103443523D01*
X124644200Y-103443523D02*
X124682295Y-103519714D01*
X124682295Y-103519714D02*
X124682295Y-103595904D01*
X124682295Y-103595904D02*
X124644200Y-103672095D01*
X124644200Y-103672095D02*
X124606104Y-103710190D01*
X124606104Y-103710190D02*
X124529914Y-103748285D01*
X124529914Y-103748285D02*
X124377533Y-103786381D01*
X124377533Y-103786381D02*
X124187057Y-103786381D01*
X124187057Y-103786381D02*
X124034676Y-103748285D01*
X124034676Y-103748285D02*
X123958485Y-103710190D01*
X123958485Y-103710190D02*
X123920390Y-103672095D01*
X123920390Y-103672095D02*
X123882295Y-103595904D01*
X123882295Y-102833999D02*
X123882295Y-102757809D01*
X123882295Y-102757809D02*
X123920390Y-102681618D01*
X123920390Y-102681618D02*
X123958485Y-102643523D01*
X123958485Y-102643523D02*
X124034676Y-102605428D01*
X124034676Y-102605428D02*
X124187057Y-102567333D01*
X124187057Y-102567333D02*
X124377533Y-102567333D01*
X124377533Y-102567333D02*
X124529914Y-102605428D01*
X124529914Y-102605428D02*
X124606104Y-102643523D01*
X124606104Y-102643523D02*
X124644200Y-102681618D01*
X124644200Y-102681618D02*
X124682295Y-102757809D01*
X124682295Y-102757809D02*
X124682295Y-102833999D01*
X124682295Y-102833999D02*
X124644200Y-102910190D01*
X124644200Y-102910190D02*
X124606104Y-102948285D01*
X124606104Y-102948285D02*
X124529914Y-102986380D01*
X124529914Y-102986380D02*
X124377533Y-103024476D01*
X124377533Y-103024476D02*
X124187057Y-103024476D01*
X124187057Y-103024476D02*
X124034676Y-102986380D01*
X124034676Y-102986380D02*
X123958485Y-102948285D01*
X123958485Y-102948285D02*
X123920390Y-102910190D01*
X123920390Y-102910190D02*
X123882295Y-102833999D01*
X118802295Y-115432190D02*
X118802295Y-115356000D01*
X118802295Y-115356000D02*
X118840390Y-115279809D01*
X118840390Y-115279809D02*
X118878485Y-115241714D01*
X118878485Y-115241714D02*
X118954676Y-115203619D01*
X118954676Y-115203619D02*
X119107057Y-115165524D01*
X119107057Y-115165524D02*
X119297533Y-115165524D01*
X119297533Y-115165524D02*
X119449914Y-115203619D01*
X119449914Y-115203619D02*
X119526104Y-115241714D01*
X119526104Y-115241714D02*
X119564200Y-115279809D01*
X119564200Y-115279809D02*
X119602295Y-115356000D01*
X119602295Y-115356000D02*
X119602295Y-115432190D01*
X119602295Y-115432190D02*
X119564200Y-115508381D01*
X119564200Y-115508381D02*
X119526104Y-115546476D01*
X119526104Y-115546476D02*
X119449914Y-115584571D01*
X119449914Y-115584571D02*
X119297533Y-115622667D01*
X119297533Y-115622667D02*
X119107057Y-115622667D01*
X119107057Y-115622667D02*
X118954676Y-115584571D01*
X118954676Y-115584571D02*
X118878485Y-115546476D01*
X118878485Y-115546476D02*
X118840390Y-115508381D01*
X118840390Y-115508381D02*
X118802295Y-115432190D01*
X118802295Y-114670285D02*
X118802295Y-114594095D01*
X118802295Y-114594095D02*
X118840390Y-114517904D01*
X118840390Y-114517904D02*
X118878485Y-114479809D01*
X118878485Y-114479809D02*
X118954676Y-114441714D01*
X118954676Y-114441714D02*
X119107057Y-114403619D01*
X119107057Y-114403619D02*
X119297533Y-114403619D01*
X119297533Y-114403619D02*
X119449914Y-114441714D01*
X119449914Y-114441714D02*
X119526104Y-114479809D01*
X119526104Y-114479809D02*
X119564200Y-114517904D01*
X119564200Y-114517904D02*
X119602295Y-114594095D01*
X119602295Y-114594095D02*
X119602295Y-114670285D01*
X119602295Y-114670285D02*
X119564200Y-114746476D01*
X119564200Y-114746476D02*
X119526104Y-114784571D01*
X119526104Y-114784571D02*
X119449914Y-114822666D01*
X119449914Y-114822666D02*
X119297533Y-114860762D01*
X119297533Y-114860762D02*
X119107057Y-114860762D01*
X119107057Y-114860762D02*
X118954676Y-114822666D01*
X118954676Y-114822666D02*
X118878485Y-114784571D01*
X118878485Y-114784571D02*
X118840390Y-114746476D01*
X118840390Y-114746476D02*
X118802295Y-114670285D01*
X118878485Y-114098857D02*
X118840390Y-114060761D01*
X118840390Y-114060761D02*
X118802295Y-113984571D01*
X118802295Y-113984571D02*
X118802295Y-113794095D01*
X118802295Y-113794095D02*
X118840390Y-113717904D01*
X118840390Y-113717904D02*
X118878485Y-113679809D01*
X118878485Y-113679809D02*
X118954676Y-113641714D01*
X118954676Y-113641714D02*
X119030866Y-113641714D01*
X119030866Y-113641714D02*
X119145152Y-113679809D01*
X119145152Y-113679809D02*
X119602295Y-114136952D01*
X119602295Y-114136952D02*
X119602295Y-113641714D01*
X111182295Y-115698857D02*
X111982295Y-115432190D01*
X111982295Y-115432190D02*
X111182295Y-115165524D01*
X111906104Y-114441714D02*
X111944200Y-114479810D01*
X111944200Y-114479810D02*
X111982295Y-114594095D01*
X111982295Y-114594095D02*
X111982295Y-114670286D01*
X111982295Y-114670286D02*
X111944200Y-114784572D01*
X111944200Y-114784572D02*
X111868009Y-114860762D01*
X111868009Y-114860762D02*
X111791819Y-114898857D01*
X111791819Y-114898857D02*
X111639438Y-114936953D01*
X111639438Y-114936953D02*
X111525152Y-114936953D01*
X111525152Y-114936953D02*
X111372771Y-114898857D01*
X111372771Y-114898857D02*
X111296580Y-114860762D01*
X111296580Y-114860762D02*
X111220390Y-114784572D01*
X111220390Y-114784572D02*
X111182295Y-114670286D01*
X111182295Y-114670286D02*
X111182295Y-114594095D01*
X111182295Y-114594095D02*
X111220390Y-114479810D01*
X111220390Y-114479810D02*
X111258485Y-114441714D01*
X111906104Y-113641714D02*
X111944200Y-113679810D01*
X111944200Y-113679810D02*
X111982295Y-113794095D01*
X111982295Y-113794095D02*
X111982295Y-113870286D01*
X111982295Y-113870286D02*
X111944200Y-113984572D01*
X111944200Y-113984572D02*
X111868009Y-114060762D01*
X111868009Y-114060762D02*
X111791819Y-114098857D01*
X111791819Y-114098857D02*
X111639438Y-114136953D01*
X111639438Y-114136953D02*
X111525152Y-114136953D01*
X111525152Y-114136953D02*
X111372771Y-114098857D01*
X111372771Y-114098857D02*
X111296580Y-114060762D01*
X111296580Y-114060762D02*
X111220390Y-113984572D01*
X111220390Y-113984572D02*
X111182295Y-113870286D01*
X111182295Y-113870286D02*
X111182295Y-113794095D01*
X111182295Y-113794095D02*
X111220390Y-113679810D01*
X111220390Y-113679810D02*
X111258485Y-113641714D01*
X128962295Y-115432190D02*
X128962295Y-115356000D01*
X128962295Y-115356000D02*
X129000390Y-115279809D01*
X129000390Y-115279809D02*
X129038485Y-115241714D01*
X129038485Y-115241714D02*
X129114676Y-115203619D01*
X129114676Y-115203619D02*
X129267057Y-115165524D01*
X129267057Y-115165524D02*
X129457533Y-115165524D01*
X129457533Y-115165524D02*
X129609914Y-115203619D01*
X129609914Y-115203619D02*
X129686104Y-115241714D01*
X129686104Y-115241714D02*
X129724200Y-115279809D01*
X129724200Y-115279809D02*
X129762295Y-115356000D01*
X129762295Y-115356000D02*
X129762295Y-115432190D01*
X129762295Y-115432190D02*
X129724200Y-115508381D01*
X129724200Y-115508381D02*
X129686104Y-115546476D01*
X129686104Y-115546476D02*
X129609914Y-115584571D01*
X129609914Y-115584571D02*
X129457533Y-115622667D01*
X129457533Y-115622667D02*
X129267057Y-115622667D01*
X129267057Y-115622667D02*
X129114676Y-115584571D01*
X129114676Y-115584571D02*
X129038485Y-115546476D01*
X129038485Y-115546476D02*
X129000390Y-115508381D01*
X129000390Y-115508381D02*
X128962295Y-115432190D01*
X129762295Y-114403619D02*
X129762295Y-114860762D01*
X129762295Y-114632190D02*
X128962295Y-114632190D01*
X128962295Y-114632190D02*
X129076580Y-114708381D01*
X129076580Y-114708381D02*
X129152771Y-114784571D01*
X129152771Y-114784571D02*
X129190866Y-114860762D01*
X128962295Y-113908380D02*
X128962295Y-113832190D01*
X128962295Y-113832190D02*
X129000390Y-113755999D01*
X129000390Y-113755999D02*
X129038485Y-113717904D01*
X129038485Y-113717904D02*
X129114676Y-113679809D01*
X129114676Y-113679809D02*
X129267057Y-113641714D01*
X129267057Y-113641714D02*
X129457533Y-113641714D01*
X129457533Y-113641714D02*
X129609914Y-113679809D01*
X129609914Y-113679809D02*
X129686104Y-113717904D01*
X129686104Y-113717904D02*
X129724200Y-113755999D01*
X129724200Y-113755999D02*
X129762295Y-113832190D01*
X129762295Y-113832190D02*
X129762295Y-113908380D01*
X129762295Y-113908380D02*
X129724200Y-113984571D01*
X129724200Y-113984571D02*
X129686104Y-114022666D01*
X129686104Y-114022666D02*
X129609914Y-114060761D01*
X129609914Y-114060761D02*
X129457533Y-114098857D01*
X129457533Y-114098857D02*
X129267057Y-114098857D01*
X129267057Y-114098857D02*
X129114676Y-114060761D01*
X129114676Y-114060761D02*
X129038485Y-114022666D01*
X129038485Y-114022666D02*
X129000390Y-113984571D01*
X129000390Y-113984571D02*
X128962295Y-113908380D01*
X129762295Y-104091143D02*
X129762295Y-104548286D01*
X129762295Y-104319714D02*
X128962295Y-104319714D01*
X128962295Y-104319714D02*
X129076580Y-104395905D01*
X129076580Y-104395905D02*
X129152771Y-104472095D01*
X129152771Y-104472095D02*
X129190866Y-104548286D01*
X128962295Y-103595904D02*
X128962295Y-103519714D01*
X128962295Y-103519714D02*
X129000390Y-103443523D01*
X129000390Y-103443523D02*
X129038485Y-103405428D01*
X129038485Y-103405428D02*
X129114676Y-103367333D01*
X129114676Y-103367333D02*
X129267057Y-103329238D01*
X129267057Y-103329238D02*
X129457533Y-103329238D01*
X129457533Y-103329238D02*
X129609914Y-103367333D01*
X129609914Y-103367333D02*
X129686104Y-103405428D01*
X129686104Y-103405428D02*
X129724200Y-103443523D01*
X129724200Y-103443523D02*
X129762295Y-103519714D01*
X129762295Y-103519714D02*
X129762295Y-103595904D01*
X129762295Y-103595904D02*
X129724200Y-103672095D01*
X129724200Y-103672095D02*
X129686104Y-103710190D01*
X129686104Y-103710190D02*
X129609914Y-103748285D01*
X129609914Y-103748285D02*
X129457533Y-103786381D01*
X129457533Y-103786381D02*
X129267057Y-103786381D01*
X129267057Y-103786381D02*
X129114676Y-103748285D01*
X129114676Y-103748285D02*
X129038485Y-103710190D01*
X129038485Y-103710190D02*
X129000390Y-103672095D01*
X129000390Y-103672095D02*
X128962295Y-103595904D01*
X129228961Y-102643523D02*
X129762295Y-102643523D01*
X128924200Y-102833999D02*
X129495628Y-103024476D01*
X129495628Y-103024476D02*
X129495628Y-102529237D01*
X127222295Y-115165524D02*
X127222295Y-115622667D01*
X127222295Y-115394095D02*
X126422295Y-115394095D01*
X126422295Y-115394095D02*
X126536580Y-115470286D01*
X126536580Y-115470286D02*
X126612771Y-115546476D01*
X126612771Y-115546476D02*
X126650866Y-115622667D01*
X127222295Y-114403619D02*
X127222295Y-114860762D01*
X127222295Y-114632190D02*
X126422295Y-114632190D01*
X126422295Y-114632190D02*
X126536580Y-114708381D01*
X126536580Y-114708381D02*
X126612771Y-114784571D01*
X126612771Y-114784571D02*
X126650866Y-114860762D01*
X127222295Y-113641714D02*
X127222295Y-114098857D01*
X127222295Y-113870285D02*
X126422295Y-113870285D01*
X126422295Y-113870285D02*
X126536580Y-113946476D01*
X126536580Y-113946476D02*
X126612771Y-114022666D01*
X126612771Y-114022666D02*
X126650866Y-114098857D01*
X109442295Y-115121094D02*
X109061342Y-115387761D01*
X109442295Y-115578237D02*
X108642295Y-115578237D01*
X108642295Y-115578237D02*
X108642295Y-115273475D01*
X108642295Y-115273475D02*
X108680390Y-115197285D01*
X108680390Y-115197285D02*
X108718485Y-115159190D01*
X108718485Y-115159190D02*
X108794676Y-115121094D01*
X108794676Y-115121094D02*
X108908961Y-115121094D01*
X108908961Y-115121094D02*
X108985152Y-115159190D01*
X108985152Y-115159190D02*
X109023247Y-115197285D01*
X109023247Y-115197285D02*
X109061342Y-115273475D01*
X109061342Y-115273475D02*
X109061342Y-115578237D01*
X109404200Y-114816333D02*
X109442295Y-114702047D01*
X109442295Y-114702047D02*
X109442295Y-114511571D01*
X109442295Y-114511571D02*
X109404200Y-114435380D01*
X109404200Y-114435380D02*
X109366104Y-114397285D01*
X109366104Y-114397285D02*
X109289914Y-114359190D01*
X109289914Y-114359190D02*
X109213723Y-114359190D01*
X109213723Y-114359190D02*
X109137533Y-114397285D01*
X109137533Y-114397285D02*
X109099438Y-114435380D01*
X109099438Y-114435380D02*
X109061342Y-114511571D01*
X109061342Y-114511571D02*
X109023247Y-114663952D01*
X109023247Y-114663952D02*
X108985152Y-114740142D01*
X108985152Y-114740142D02*
X108947057Y-114778237D01*
X108947057Y-114778237D02*
X108870866Y-114816333D01*
X108870866Y-114816333D02*
X108794676Y-114816333D01*
X108794676Y-114816333D02*
X108718485Y-114778237D01*
X108718485Y-114778237D02*
X108680390Y-114740142D01*
X108680390Y-114740142D02*
X108642295Y-114663952D01*
X108642295Y-114663952D02*
X108642295Y-114473475D01*
X108642295Y-114473475D02*
X108680390Y-114359190D01*
X108642295Y-114130618D02*
X108642295Y-113673475D01*
X109442295Y-113902047D02*
X108642295Y-113902047D01*
X122142295Y-115165524D02*
X122142295Y-115622667D01*
X122142295Y-115394095D02*
X121342295Y-115394095D01*
X121342295Y-115394095D02*
X121456580Y-115470286D01*
X121456580Y-115470286D02*
X121532771Y-115546476D01*
X121532771Y-115546476D02*
X121570866Y-115622667D01*
X122142295Y-114403619D02*
X122142295Y-114860762D01*
X122142295Y-114632190D02*
X121342295Y-114632190D01*
X121342295Y-114632190D02*
X121456580Y-114708381D01*
X121456580Y-114708381D02*
X121532771Y-114784571D01*
X121532771Y-114784571D02*
X121570866Y-114860762D01*
X121342295Y-113679809D02*
X121342295Y-114060761D01*
X121342295Y-114060761D02*
X121723247Y-114098857D01*
X121723247Y-114098857D02*
X121685152Y-114060761D01*
X121685152Y-114060761D02*
X121647057Y-113984571D01*
X121647057Y-113984571D02*
X121647057Y-113794095D01*
X121647057Y-113794095D02*
X121685152Y-113717904D01*
X121685152Y-113717904D02*
X121723247Y-113679809D01*
X121723247Y-113679809D02*
X121799438Y-113641714D01*
X121799438Y-113641714D02*
X121989914Y-113641714D01*
X121989914Y-113641714D02*
X122066104Y-113679809D01*
X122066104Y-113679809D02*
X122104200Y-113717904D01*
X122104200Y-113717904D02*
X122142295Y-113794095D01*
X122142295Y-113794095D02*
X122142295Y-113984571D01*
X122142295Y-113984571D02*
X122104200Y-114060761D01*
X122104200Y-114060761D02*
X122066104Y-114098857D01*
X113722295Y-115432190D02*
X113722295Y-115356000D01*
X113722295Y-115356000D02*
X113760390Y-115279809D01*
X113760390Y-115279809D02*
X113798485Y-115241714D01*
X113798485Y-115241714D02*
X113874676Y-115203619D01*
X113874676Y-115203619D02*
X114027057Y-115165524D01*
X114027057Y-115165524D02*
X114217533Y-115165524D01*
X114217533Y-115165524D02*
X114369914Y-115203619D01*
X114369914Y-115203619D02*
X114446104Y-115241714D01*
X114446104Y-115241714D02*
X114484200Y-115279809D01*
X114484200Y-115279809D02*
X114522295Y-115356000D01*
X114522295Y-115356000D02*
X114522295Y-115432190D01*
X114522295Y-115432190D02*
X114484200Y-115508381D01*
X114484200Y-115508381D02*
X114446104Y-115546476D01*
X114446104Y-115546476D02*
X114369914Y-115584571D01*
X114369914Y-115584571D02*
X114217533Y-115622667D01*
X114217533Y-115622667D02*
X114027057Y-115622667D01*
X114027057Y-115622667D02*
X113874676Y-115584571D01*
X113874676Y-115584571D02*
X113798485Y-115546476D01*
X113798485Y-115546476D02*
X113760390Y-115508381D01*
X113760390Y-115508381D02*
X113722295Y-115432190D01*
X113722295Y-114898857D02*
X113722295Y-114403619D01*
X113722295Y-114403619D02*
X114027057Y-114670285D01*
X114027057Y-114670285D02*
X114027057Y-114556000D01*
X114027057Y-114556000D02*
X114065152Y-114479809D01*
X114065152Y-114479809D02*
X114103247Y-114441714D01*
X114103247Y-114441714D02*
X114179438Y-114403619D01*
X114179438Y-114403619D02*
X114369914Y-114403619D01*
X114369914Y-114403619D02*
X114446104Y-114441714D01*
X114446104Y-114441714D02*
X114484200Y-114479809D01*
X114484200Y-114479809D02*
X114522295Y-114556000D01*
X114522295Y-114556000D02*
X114522295Y-114784571D01*
X114522295Y-114784571D02*
X114484200Y-114860762D01*
X114484200Y-114860762D02*
X114446104Y-114898857D01*
X114522295Y-113641714D02*
X114522295Y-114098857D01*
X114522295Y-113870285D02*
X113722295Y-113870285D01*
X113722295Y-113870285D02*
X113836580Y-113946476D01*
X113836580Y-113946476D02*
X113912771Y-114022666D01*
X113912771Y-114022666D02*
X113950866Y-114098857D01*
X106032295Y-104357809D02*
X106032295Y-104281619D01*
X106032295Y-104281619D02*
X106070390Y-104205428D01*
X106070390Y-104205428D02*
X106108485Y-104167333D01*
X106108485Y-104167333D02*
X106184676Y-104129238D01*
X106184676Y-104129238D02*
X106337057Y-104091143D01*
X106337057Y-104091143D02*
X106527533Y-104091143D01*
X106527533Y-104091143D02*
X106679914Y-104129238D01*
X106679914Y-104129238D02*
X106756104Y-104167333D01*
X106756104Y-104167333D02*
X106794200Y-104205428D01*
X106794200Y-104205428D02*
X106832295Y-104281619D01*
X106832295Y-104281619D02*
X106832295Y-104357809D01*
X106832295Y-104357809D02*
X106794200Y-104434000D01*
X106794200Y-104434000D02*
X106756104Y-104472095D01*
X106756104Y-104472095D02*
X106679914Y-104510190D01*
X106679914Y-104510190D02*
X106527533Y-104548286D01*
X106527533Y-104548286D02*
X106337057Y-104548286D01*
X106337057Y-104548286D02*
X106184676Y-104510190D01*
X106184676Y-104510190D02*
X106108485Y-104472095D01*
X106108485Y-104472095D02*
X106070390Y-104434000D01*
X106070390Y-104434000D02*
X106032295Y-104357809D01*
X106032295Y-103595904D02*
X106032295Y-103519714D01*
X106032295Y-103519714D02*
X106070390Y-103443523D01*
X106070390Y-103443523D02*
X106108485Y-103405428D01*
X106108485Y-103405428D02*
X106184676Y-103367333D01*
X106184676Y-103367333D02*
X106337057Y-103329238D01*
X106337057Y-103329238D02*
X106527533Y-103329238D01*
X106527533Y-103329238D02*
X106679914Y-103367333D01*
X106679914Y-103367333D02*
X106756104Y-103405428D01*
X106756104Y-103405428D02*
X106794200Y-103443523D01*
X106794200Y-103443523D02*
X106832295Y-103519714D01*
X106832295Y-103519714D02*
X106832295Y-103595904D01*
X106832295Y-103595904D02*
X106794200Y-103672095D01*
X106794200Y-103672095D02*
X106756104Y-103710190D01*
X106756104Y-103710190D02*
X106679914Y-103748285D01*
X106679914Y-103748285D02*
X106527533Y-103786381D01*
X106527533Y-103786381D02*
X106337057Y-103786381D01*
X106337057Y-103786381D02*
X106184676Y-103748285D01*
X106184676Y-103748285D02*
X106108485Y-103710190D01*
X106108485Y-103710190D02*
X106070390Y-103672095D01*
X106070390Y-103672095D02*
X106032295Y-103595904D01*
X106375152Y-102872095D02*
X106337057Y-102948285D01*
X106337057Y-102948285D02*
X106298961Y-102986380D01*
X106298961Y-102986380D02*
X106222771Y-103024476D01*
X106222771Y-103024476D02*
X106184676Y-103024476D01*
X106184676Y-103024476D02*
X106108485Y-102986380D01*
X106108485Y-102986380D02*
X106070390Y-102948285D01*
X106070390Y-102948285D02*
X106032295Y-102872095D01*
X106032295Y-102872095D02*
X106032295Y-102719714D01*
X106032295Y-102719714D02*
X106070390Y-102643523D01*
X106070390Y-102643523D02*
X106108485Y-102605428D01*
X106108485Y-102605428D02*
X106184676Y-102567333D01*
X106184676Y-102567333D02*
X106222771Y-102567333D01*
X106222771Y-102567333D02*
X106298961Y-102605428D01*
X106298961Y-102605428D02*
X106337057Y-102643523D01*
X106337057Y-102643523D02*
X106375152Y-102719714D01*
X106375152Y-102719714D02*
X106375152Y-102872095D01*
X106375152Y-102872095D02*
X106413247Y-102948285D01*
X106413247Y-102948285D02*
X106451342Y-102986380D01*
X106451342Y-102986380D02*
X106527533Y-103024476D01*
X106527533Y-103024476D02*
X106679914Y-103024476D01*
X106679914Y-103024476D02*
X106756104Y-102986380D01*
X106756104Y-102986380D02*
X106794200Y-102948285D01*
X106794200Y-102948285D02*
X106832295Y-102872095D01*
X106832295Y-102872095D02*
X106832295Y-102719714D01*
X106832295Y-102719714D02*
X106794200Y-102643523D01*
X106794200Y-102643523D02*
X106756104Y-102605428D01*
X106756104Y-102605428D02*
X106679914Y-102567333D01*
X106679914Y-102567333D02*
X106527533Y-102567333D01*
X106527533Y-102567333D02*
X106451342Y-102605428D01*
X106451342Y-102605428D02*
X106413247Y-102643523D01*
X106413247Y-102643523D02*
X106375152Y-102719714D01*
X113722295Y-104357809D02*
X113722295Y-104281619D01*
X113722295Y-104281619D02*
X113760390Y-104205428D01*
X113760390Y-104205428D02*
X113798485Y-104167333D01*
X113798485Y-104167333D02*
X113874676Y-104129238D01*
X113874676Y-104129238D02*
X114027057Y-104091143D01*
X114027057Y-104091143D02*
X114217533Y-104091143D01*
X114217533Y-104091143D02*
X114369914Y-104129238D01*
X114369914Y-104129238D02*
X114446104Y-104167333D01*
X114446104Y-104167333D02*
X114484200Y-104205428D01*
X114484200Y-104205428D02*
X114522295Y-104281619D01*
X114522295Y-104281619D02*
X114522295Y-104357809D01*
X114522295Y-104357809D02*
X114484200Y-104434000D01*
X114484200Y-104434000D02*
X114446104Y-104472095D01*
X114446104Y-104472095D02*
X114369914Y-104510190D01*
X114369914Y-104510190D02*
X114217533Y-104548286D01*
X114217533Y-104548286D02*
X114027057Y-104548286D01*
X114027057Y-104548286D02*
X113874676Y-104510190D01*
X113874676Y-104510190D02*
X113798485Y-104472095D01*
X113798485Y-104472095D02*
X113760390Y-104434000D01*
X113760390Y-104434000D02*
X113722295Y-104357809D01*
X114522295Y-103329238D02*
X114522295Y-103786381D01*
X114522295Y-103557809D02*
X113722295Y-103557809D01*
X113722295Y-103557809D02*
X113836580Y-103634000D01*
X113836580Y-103634000D02*
X113912771Y-103710190D01*
X113912771Y-103710190D02*
X113950866Y-103786381D01*
X113722295Y-103062571D02*
X113722295Y-102529237D01*
X113722295Y-102529237D02*
X114522295Y-102872095D01*
X121332295Y-104357809D02*
X121332295Y-104281619D01*
X121332295Y-104281619D02*
X121370390Y-104205428D01*
X121370390Y-104205428D02*
X121408485Y-104167333D01*
X121408485Y-104167333D02*
X121484676Y-104129238D01*
X121484676Y-104129238D02*
X121637057Y-104091143D01*
X121637057Y-104091143D02*
X121827533Y-104091143D01*
X121827533Y-104091143D02*
X121979914Y-104129238D01*
X121979914Y-104129238D02*
X122056104Y-104167333D01*
X122056104Y-104167333D02*
X122094200Y-104205428D01*
X122094200Y-104205428D02*
X122132295Y-104281619D01*
X122132295Y-104281619D02*
X122132295Y-104357809D01*
X122132295Y-104357809D02*
X122094200Y-104434000D01*
X122094200Y-104434000D02*
X122056104Y-104472095D01*
X122056104Y-104472095D02*
X121979914Y-104510190D01*
X121979914Y-104510190D02*
X121827533Y-104548286D01*
X121827533Y-104548286D02*
X121637057Y-104548286D01*
X121637057Y-104548286D02*
X121484676Y-104510190D01*
X121484676Y-104510190D02*
X121408485Y-104472095D01*
X121408485Y-104472095D02*
X121370390Y-104434000D01*
X121370390Y-104434000D02*
X121332295Y-104357809D01*
X121408485Y-103786381D02*
X121370390Y-103748285D01*
X121370390Y-103748285D02*
X121332295Y-103672095D01*
X121332295Y-103672095D02*
X121332295Y-103481619D01*
X121332295Y-103481619D02*
X121370390Y-103405428D01*
X121370390Y-103405428D02*
X121408485Y-103367333D01*
X121408485Y-103367333D02*
X121484676Y-103329238D01*
X121484676Y-103329238D02*
X121560866Y-103329238D01*
X121560866Y-103329238D02*
X121675152Y-103367333D01*
X121675152Y-103367333D02*
X122132295Y-103824476D01*
X122132295Y-103824476D02*
X122132295Y-103329238D01*
X121598961Y-102643523D02*
X122132295Y-102643523D01*
X121294200Y-102833999D02*
X121865628Y-103024476D01*
X121865628Y-103024476D02*
X121865628Y-102529237D01*
X103562295Y-104357809D02*
X103562295Y-104281619D01*
X103562295Y-104281619D02*
X103600390Y-104205428D01*
X103600390Y-104205428D02*
X103638485Y-104167333D01*
X103638485Y-104167333D02*
X103714676Y-104129238D01*
X103714676Y-104129238D02*
X103867057Y-104091143D01*
X103867057Y-104091143D02*
X104057533Y-104091143D01*
X104057533Y-104091143D02*
X104209914Y-104129238D01*
X104209914Y-104129238D02*
X104286104Y-104167333D01*
X104286104Y-104167333D02*
X104324200Y-104205428D01*
X104324200Y-104205428D02*
X104362295Y-104281619D01*
X104362295Y-104281619D02*
X104362295Y-104357809D01*
X104362295Y-104357809D02*
X104324200Y-104434000D01*
X104324200Y-104434000D02*
X104286104Y-104472095D01*
X104286104Y-104472095D02*
X104209914Y-104510190D01*
X104209914Y-104510190D02*
X104057533Y-104548286D01*
X104057533Y-104548286D02*
X103867057Y-104548286D01*
X103867057Y-104548286D02*
X103714676Y-104510190D01*
X103714676Y-104510190D02*
X103638485Y-104472095D01*
X103638485Y-104472095D02*
X103600390Y-104434000D01*
X103600390Y-104434000D02*
X103562295Y-104357809D01*
X103562295Y-103595904D02*
X103562295Y-103519714D01*
X103562295Y-103519714D02*
X103600390Y-103443523D01*
X103600390Y-103443523D02*
X103638485Y-103405428D01*
X103638485Y-103405428D02*
X103714676Y-103367333D01*
X103714676Y-103367333D02*
X103867057Y-103329238D01*
X103867057Y-103329238D02*
X104057533Y-103329238D01*
X104057533Y-103329238D02*
X104209914Y-103367333D01*
X104209914Y-103367333D02*
X104286104Y-103405428D01*
X104286104Y-103405428D02*
X104324200Y-103443523D01*
X104324200Y-103443523D02*
X104362295Y-103519714D01*
X104362295Y-103519714D02*
X104362295Y-103595904D01*
X104362295Y-103595904D02*
X104324200Y-103672095D01*
X104324200Y-103672095D02*
X104286104Y-103710190D01*
X104286104Y-103710190D02*
X104209914Y-103748285D01*
X104209914Y-103748285D02*
X104057533Y-103786381D01*
X104057533Y-103786381D02*
X103867057Y-103786381D01*
X103867057Y-103786381D02*
X103714676Y-103748285D01*
X103714676Y-103748285D02*
X103638485Y-103710190D01*
X103638485Y-103710190D02*
X103600390Y-103672095D01*
X103600390Y-103672095D02*
X103562295Y-103595904D01*
X103562295Y-102643523D02*
X103562295Y-102795904D01*
X103562295Y-102795904D02*
X103600390Y-102872095D01*
X103600390Y-102872095D02*
X103638485Y-102910190D01*
X103638485Y-102910190D02*
X103752771Y-102986380D01*
X103752771Y-102986380D02*
X103905152Y-103024476D01*
X103905152Y-103024476D02*
X104209914Y-103024476D01*
X104209914Y-103024476D02*
X104286104Y-102986380D01*
X104286104Y-102986380D02*
X104324200Y-102948285D01*
X104324200Y-102948285D02*
X104362295Y-102872095D01*
X104362295Y-102872095D02*
X104362295Y-102719714D01*
X104362295Y-102719714D02*
X104324200Y-102643523D01*
X104324200Y-102643523D02*
X104286104Y-102605428D01*
X104286104Y-102605428D02*
X104209914Y-102567333D01*
X104209914Y-102567333D02*
X104019438Y-102567333D01*
X104019438Y-102567333D02*
X103943247Y-102605428D01*
X103943247Y-102605428D02*
X103905152Y-102643523D01*
X103905152Y-102643523D02*
X103867057Y-102719714D01*
X103867057Y-102719714D02*
X103867057Y-102872095D01*
X103867057Y-102872095D02*
X103905152Y-102948285D01*
X103905152Y-102948285D02*
X103943247Y-102986380D01*
X103943247Y-102986380D02*
X104019438Y-103024476D01*
X131202381Y-111931009D02*
X131345238Y-111978628D01*
X131345238Y-111978628D02*
X131392857Y-112026247D01*
X131392857Y-112026247D02*
X131440476Y-112121485D01*
X131440476Y-112121485D02*
X131440476Y-112264342D01*
X131440476Y-112264342D02*
X131392857Y-112359580D01*
X131392857Y-112359580D02*
X131345238Y-112407200D01*
X131345238Y-112407200D02*
X131250000Y-112454819D01*
X131250000Y-112454819D02*
X130869048Y-112454819D01*
X130869048Y-112454819D02*
X130869048Y-111454819D01*
X130869048Y-111454819D02*
X131202381Y-111454819D01*
X131202381Y-111454819D02*
X131297619Y-111502438D01*
X131297619Y-111502438D02*
X131345238Y-111550057D01*
X131345238Y-111550057D02*
X131392857Y-111645295D01*
X131392857Y-111645295D02*
X131392857Y-111740533D01*
X131392857Y-111740533D02*
X131345238Y-111835771D01*
X131345238Y-111835771D02*
X131297619Y-111883390D01*
X131297619Y-111883390D02*
X131202381Y-111931009D01*
X131202381Y-111931009D02*
X130869048Y-111931009D01*
X131869048Y-112073866D02*
X132630953Y-112073866D01*
X132250000Y-112454819D02*
X132250000Y-111692914D01*
X130838095Y-105302438D02*
X130742857Y-105254819D01*
X130742857Y-105254819D02*
X130600000Y-105254819D01*
X130600000Y-105254819D02*
X130457143Y-105302438D01*
X130457143Y-105302438D02*
X130361905Y-105397676D01*
X130361905Y-105397676D02*
X130314286Y-105492914D01*
X130314286Y-105492914D02*
X130266667Y-105683390D01*
X130266667Y-105683390D02*
X130266667Y-105826247D01*
X130266667Y-105826247D02*
X130314286Y-106016723D01*
X130314286Y-106016723D02*
X130361905Y-106111961D01*
X130361905Y-106111961D02*
X130457143Y-106207200D01*
X130457143Y-106207200D02*
X130600000Y-106254819D01*
X130600000Y-106254819D02*
X130695238Y-106254819D01*
X130695238Y-106254819D02*
X130838095Y-106207200D01*
X130838095Y-106207200D02*
X130885714Y-106159580D01*
X130885714Y-106159580D02*
X130885714Y-105826247D01*
X130885714Y-105826247D02*
X130695238Y-105826247D01*
X131314286Y-106254819D02*
X131314286Y-105254819D01*
X131314286Y-105254819D02*
X131885714Y-106254819D01*
X131885714Y-106254819D02*
X131885714Y-105254819D01*
X132361905Y-106254819D02*
X132361905Y-105254819D01*
X132361905Y-105254819D02*
X132600000Y-105254819D01*
X132600000Y-105254819D02*
X132742857Y-105302438D01*
X132742857Y-105302438D02*
X132838095Y-105397676D01*
X132838095Y-105397676D02*
X132885714Y-105492914D01*
X132885714Y-105492914D02*
X132933333Y-105683390D01*
X132933333Y-105683390D02*
X132933333Y-105826247D01*
X132933333Y-105826247D02*
X132885714Y-106016723D01*
X132885714Y-106016723D02*
X132838095Y-106111961D01*
X132838095Y-106111961D02*
X132742857Y-106207200D01*
X132742857Y-106207200D02*
X132600000Y-106254819D01*
X132600000Y-106254819D02*
X132361905Y-106254819D01*
D11*
X100190000Y-100205000D02*
X133210000Y-100205000D01*
X100190000Y-117985000D02*
X100190000Y-100205000D01*
X133210000Y-100205000D02*
X133210000Y-117985000D01*
X133210000Y-117985000D02*
X100190000Y-117985000D01*
D12*
X104000000Y-101475000D03*
X106540000Y-101475000D03*
X109080000Y-101475000D03*
X111620000Y-101475000D03*
X114160000Y-101475000D03*
X116700000Y-101475000D03*
X119240000Y-101475000D03*
X121780000Y-101475000D03*
X124320000Y-101475000D03*
X126860000Y-101475000D03*
X129400000Y-101475000D03*
X131940000Y-101475000D03*
X131940000Y-116715000D03*
X129400000Y-116715000D03*
X126860000Y-116715000D03*
X124320000Y-116715000D03*
X121780000Y-116715000D03*
X119240000Y-116715000D03*
X116700000Y-116715000D03*
X114160000Y-116715000D03*
X111620000Y-116715000D03*
X109080000Y-116715000D03*
X106540000Y-116715000D03*
X104000000Y-116715000D03*
%LPC*%
X104000000Y-101475000D03*
X106540000Y-101475000D03*
X109080000Y-101475000D03*
X111620000Y-101475000D03*
X114160000Y-101475000D03*
X116700000Y-101475000D03*
X119240000Y-101475000D03*
X121780000Y-101475000D03*
X124320000Y-101475000D03*
X126860000Y-101475000D03*
X129400000Y-101475000D03*
X131940000Y-101475000D03*
X131940000Y-116715000D03*
X129400000Y-116715000D03*
X126860000Y-116715000D03*
X124320000Y-116715000D03*
X121780000Y-116715000D03*
X119240000Y-116715000D03*
X116700000Y-116715000D03*
X114160000Y-116715000D03*
X111620000Y-116715000D03*
X109080000Y-116715000D03*
X106540000Y-116715000D03*
X104000000Y-116715000D03*
D13*
X131750000Y-114250000D03*
X131750000Y-103750000D03*
%LPD*%
M02*
