%TF.GenerationSoftware,KiCad,Pcbnew,7.0.8*%
%TF.CreationDate,2024-04-01T14:53:32+01:00*%
%TF.ProjectId,daughterboard,64617567-6874-4657-9262-6f6172642e6b,rev?*%
%TF.SameCoordinates,Original*%
%TF.FileFunction,Drillmap*%
%TF.FilePolarity,Positive*%
%FSLAX45Y45*%
G04 Gerber Fmt 4.5, Leading zero omitted, Abs format (unit mm)*
G04 Created by KiCad (PCBNEW 7.0.8) date 2024-04-01 14:53:32*
%MOMM*%
%LPD*%
G01*
G04 APERTURE LIST*
%ADD10C,0.100000*%
%ADD11C,0.200000*%
%ADD12C,0.109220*%
%ADD13C,0.110000*%
G04 APERTURE END LIST*
D10*
X13350000Y-10100000D02*
X13350096Y-11704289D01*
X10100000Y-11800000D02*
X13250000Y-11800000D01*
X10100000Y-10000000D02*
X13250000Y-10000000D01*
X10000000Y-10100000D02*
X10000000Y-11700000D01*
X13250000Y-11800000D02*
G75*
G03*
X13350096Y-11704289I4290J95710D01*
G01*
X13350000Y-10100000D02*
G75*
G03*
X13250000Y-10000000I-100000J0D01*
G01*
X10100000Y-10000000D02*
G75*
G03*
X10000000Y-10100000I0J-100000D01*
G01*
X10000000Y-11700000D02*
G75*
G03*
X10100000Y-11800000I100000J0D01*
G01*
D11*
D12*
X10345390Y-10092890D02*
X10454610Y-10202110D01*
X10454610Y-10092890D02*
X10345390Y-10202110D01*
X10345390Y-11616890D02*
X10454610Y-11726110D01*
X10454610Y-11616890D02*
X10345390Y-11726110D01*
X10599390Y-10092890D02*
X10708610Y-10202110D01*
X10708610Y-10092890D02*
X10599390Y-10202110D01*
X10599390Y-11616890D02*
X10708610Y-11726110D01*
X10708610Y-11616890D02*
X10599390Y-11726110D01*
X10853390Y-10092890D02*
X10962610Y-10202110D01*
X10962610Y-10092890D02*
X10853390Y-10202110D01*
X10853390Y-11616890D02*
X10962610Y-11726110D01*
X10962610Y-11616890D02*
X10853390Y-11726110D01*
X11107390Y-10092890D02*
X11216610Y-10202110D01*
X11216610Y-10092890D02*
X11107390Y-10202110D01*
X11107390Y-11616890D02*
X11216610Y-11726110D01*
X11216610Y-11616890D02*
X11107390Y-11726110D01*
X11361390Y-10092890D02*
X11470610Y-10202110D01*
X11470610Y-10092890D02*
X11361390Y-10202110D01*
X11361390Y-11616890D02*
X11470610Y-11726110D01*
X11470610Y-11616890D02*
X11361390Y-11726110D01*
X11615390Y-10092890D02*
X11724610Y-10202110D01*
X11724610Y-10092890D02*
X11615390Y-10202110D01*
X11615390Y-11616890D02*
X11724610Y-11726110D01*
X11724610Y-11616890D02*
X11615390Y-11726110D01*
X11869390Y-10092890D02*
X11978610Y-10202110D01*
X11978610Y-10092890D02*
X11869390Y-10202110D01*
X11869390Y-11616890D02*
X11978610Y-11726110D01*
X11978610Y-11616890D02*
X11869390Y-11726110D01*
X12123390Y-10092890D02*
X12232610Y-10202110D01*
X12232610Y-10092890D02*
X12123390Y-10202110D01*
X12123390Y-11616890D02*
X12232610Y-11726110D01*
X12232610Y-11616890D02*
X12123390Y-11726110D01*
X12377390Y-10092890D02*
X12486610Y-10202110D01*
X12486610Y-10092890D02*
X12377390Y-10202110D01*
X12377390Y-11616890D02*
X12486610Y-11726110D01*
X12486610Y-11616890D02*
X12377390Y-11726110D01*
X12631390Y-10092890D02*
X12740610Y-10202110D01*
X12740610Y-10092890D02*
X12631390Y-10202110D01*
X12631390Y-11616890D02*
X12740610Y-11726110D01*
X12740610Y-11616890D02*
X12631390Y-11726110D01*
X12885390Y-10092890D02*
X12994610Y-10202110D01*
X12994610Y-10092890D02*
X12885390Y-10202110D01*
X12885390Y-11616890D02*
X12994610Y-11726110D01*
X12994610Y-11616890D02*
X12885390Y-11726110D01*
X13139390Y-10092890D02*
X13248610Y-10202110D01*
X13248610Y-10092890D02*
X13139390Y-10202110D01*
X13139390Y-11616890D02*
X13248610Y-11726110D01*
X13248610Y-11616890D02*
X13139390Y-11726110D01*
D13*
X13230000Y-10375000D02*
G75*
G03*
X13230000Y-10375000I-55000J0D01*
G01*
X13230000Y-11425000D02*
G75*
G03*
X13230000Y-11425000I-55000J0D01*
G01*
D11*
X10255777Y-12116580D02*
X10255777Y-11916580D01*
X10255777Y-11916580D02*
X10303396Y-11916580D01*
X10303396Y-11916580D02*
X10331967Y-11926104D01*
X10331967Y-11926104D02*
X10351015Y-11945151D01*
X10351015Y-11945151D02*
X10360539Y-11964199D01*
X10360539Y-11964199D02*
X10370063Y-12002294D01*
X10370063Y-12002294D02*
X10370063Y-12030865D01*
X10370063Y-12030865D02*
X10360539Y-12068961D01*
X10360539Y-12068961D02*
X10351015Y-12088008D01*
X10351015Y-12088008D02*
X10331967Y-12107056D01*
X10331967Y-12107056D02*
X10303396Y-12116580D01*
X10303396Y-12116580D02*
X10255777Y-12116580D01*
X10455777Y-12116580D02*
X10455777Y-11983246D01*
X10455777Y-12021342D02*
X10465301Y-12002294D01*
X10465301Y-12002294D02*
X10474824Y-11992770D01*
X10474824Y-11992770D02*
X10493872Y-11983246D01*
X10493872Y-11983246D02*
X10512920Y-11983246D01*
X10579586Y-12116580D02*
X10579586Y-11983246D01*
X10579586Y-11916580D02*
X10570063Y-11926104D01*
X10570063Y-11926104D02*
X10579586Y-11935627D01*
X10579586Y-11935627D02*
X10589110Y-11926104D01*
X10589110Y-11926104D02*
X10579586Y-11916580D01*
X10579586Y-11916580D02*
X10579586Y-11935627D01*
X10703396Y-12116580D02*
X10684348Y-12107056D01*
X10684348Y-12107056D02*
X10674824Y-12088008D01*
X10674824Y-12088008D02*
X10674824Y-11916580D01*
X10808158Y-12116580D02*
X10789110Y-12107056D01*
X10789110Y-12107056D02*
X10779586Y-12088008D01*
X10779586Y-12088008D02*
X10779586Y-11916580D01*
X11036729Y-12116580D02*
X11036729Y-11916580D01*
X11036729Y-11916580D02*
X11103396Y-12059437D01*
X11103396Y-12059437D02*
X11170063Y-11916580D01*
X11170063Y-11916580D02*
X11170063Y-12116580D01*
X11351015Y-12116580D02*
X11351015Y-12011818D01*
X11351015Y-12011818D02*
X11341491Y-11992770D01*
X11341491Y-11992770D02*
X11322443Y-11983246D01*
X11322443Y-11983246D02*
X11284348Y-11983246D01*
X11284348Y-11983246D02*
X11265301Y-11992770D01*
X11351015Y-12107056D02*
X11331967Y-12116580D01*
X11331967Y-12116580D02*
X11284348Y-12116580D01*
X11284348Y-12116580D02*
X11265301Y-12107056D01*
X11265301Y-12107056D02*
X11255777Y-12088008D01*
X11255777Y-12088008D02*
X11255777Y-12068961D01*
X11255777Y-12068961D02*
X11265301Y-12049913D01*
X11265301Y-12049913D02*
X11284348Y-12040389D01*
X11284348Y-12040389D02*
X11331967Y-12040389D01*
X11331967Y-12040389D02*
X11351015Y-12030865D01*
X11446253Y-11983246D02*
X11446253Y-12183246D01*
X11446253Y-11992770D02*
X11465301Y-11983246D01*
X11465301Y-11983246D02*
X11503396Y-11983246D01*
X11503396Y-11983246D02*
X11522443Y-11992770D01*
X11522443Y-11992770D02*
X11531967Y-12002294D01*
X11531967Y-12002294D02*
X11541491Y-12021342D01*
X11541491Y-12021342D02*
X11541491Y-12078484D01*
X11541491Y-12078484D02*
X11531967Y-12097532D01*
X11531967Y-12097532D02*
X11522443Y-12107056D01*
X11522443Y-12107056D02*
X11503396Y-12116580D01*
X11503396Y-12116580D02*
X11465301Y-12116580D01*
X11465301Y-12116580D02*
X11446253Y-12107056D01*
X11627205Y-12097532D02*
X11636729Y-12107056D01*
X11636729Y-12107056D02*
X11627205Y-12116580D01*
X11627205Y-12116580D02*
X11617682Y-12107056D01*
X11617682Y-12107056D02*
X11627205Y-12097532D01*
X11627205Y-12097532D02*
X11627205Y-12116580D01*
X11627205Y-11992770D02*
X11636729Y-12002294D01*
X11636729Y-12002294D02*
X11627205Y-12011818D01*
X11627205Y-12011818D02*
X11617682Y-12002294D01*
X11617682Y-12002294D02*
X11627205Y-11992770D01*
X11627205Y-11992770D02*
X11627205Y-12011818D01*
D12*
X9885780Y-12390486D02*
X9995000Y-12499706D01*
X9995000Y-12390486D02*
X9885780Y-12499706D01*
D11*
X10360539Y-12536580D02*
X10246253Y-12536580D01*
X10303396Y-12536580D02*
X10303396Y-12336580D01*
X10303396Y-12336580D02*
X10284348Y-12365151D01*
X10284348Y-12365151D02*
X10265301Y-12384199D01*
X10265301Y-12384199D02*
X10246253Y-12393723D01*
X10446253Y-12517532D02*
X10455777Y-12527056D01*
X10455777Y-12527056D02*
X10446253Y-12536580D01*
X10446253Y-12536580D02*
X10436729Y-12527056D01*
X10436729Y-12527056D02*
X10446253Y-12517532D01*
X10446253Y-12517532D02*
X10446253Y-12536580D01*
X10579586Y-12336580D02*
X10598634Y-12336580D01*
X10598634Y-12336580D02*
X10617682Y-12346104D01*
X10617682Y-12346104D02*
X10627205Y-12355627D01*
X10627205Y-12355627D02*
X10636729Y-12374675D01*
X10636729Y-12374675D02*
X10646253Y-12412770D01*
X10646253Y-12412770D02*
X10646253Y-12460389D01*
X10646253Y-12460389D02*
X10636729Y-12498484D01*
X10636729Y-12498484D02*
X10627205Y-12517532D01*
X10627205Y-12517532D02*
X10617682Y-12527056D01*
X10617682Y-12527056D02*
X10598634Y-12536580D01*
X10598634Y-12536580D02*
X10579586Y-12536580D01*
X10579586Y-12536580D02*
X10560539Y-12527056D01*
X10560539Y-12527056D02*
X10551015Y-12517532D01*
X10551015Y-12517532D02*
X10541491Y-12498484D01*
X10541491Y-12498484D02*
X10531967Y-12460389D01*
X10531967Y-12460389D02*
X10531967Y-12412770D01*
X10531967Y-12412770D02*
X10541491Y-12374675D01*
X10541491Y-12374675D02*
X10551015Y-12355627D01*
X10551015Y-12355627D02*
X10560539Y-12346104D01*
X10560539Y-12346104D02*
X10579586Y-12336580D01*
X10741491Y-12536580D02*
X10779586Y-12536580D01*
X10779586Y-12536580D02*
X10798634Y-12527056D01*
X10798634Y-12527056D02*
X10808158Y-12517532D01*
X10808158Y-12517532D02*
X10827205Y-12488961D01*
X10827205Y-12488961D02*
X10836729Y-12450865D01*
X10836729Y-12450865D02*
X10836729Y-12374675D01*
X10836729Y-12374675D02*
X10827205Y-12355627D01*
X10827205Y-12355627D02*
X10817682Y-12346104D01*
X10817682Y-12346104D02*
X10798634Y-12336580D01*
X10798634Y-12336580D02*
X10760539Y-12336580D01*
X10760539Y-12336580D02*
X10741491Y-12346104D01*
X10741491Y-12346104D02*
X10731967Y-12355627D01*
X10731967Y-12355627D02*
X10722444Y-12374675D01*
X10722444Y-12374675D02*
X10722444Y-12422294D01*
X10722444Y-12422294D02*
X10731967Y-12441342D01*
X10731967Y-12441342D02*
X10741491Y-12450865D01*
X10741491Y-12450865D02*
X10760539Y-12460389D01*
X10760539Y-12460389D02*
X10798634Y-12460389D01*
X10798634Y-12460389D02*
X10817682Y-12450865D01*
X10817682Y-12450865D02*
X10827205Y-12441342D01*
X10827205Y-12441342D02*
X10836729Y-12422294D01*
X10912920Y-12355627D02*
X10922444Y-12346104D01*
X10922444Y-12346104D02*
X10941491Y-12336580D01*
X10941491Y-12336580D02*
X10989110Y-12336580D01*
X10989110Y-12336580D02*
X11008158Y-12346104D01*
X11008158Y-12346104D02*
X11017682Y-12355627D01*
X11017682Y-12355627D02*
X11027205Y-12374675D01*
X11027205Y-12374675D02*
X11027205Y-12393723D01*
X11027205Y-12393723D02*
X11017682Y-12422294D01*
X11017682Y-12422294D02*
X10903396Y-12536580D01*
X10903396Y-12536580D02*
X11027205Y-12536580D01*
X11112920Y-12536580D02*
X11112920Y-12403246D01*
X11112920Y-12422294D02*
X11122444Y-12412770D01*
X11122444Y-12412770D02*
X11141491Y-12403246D01*
X11141491Y-12403246D02*
X11170063Y-12403246D01*
X11170063Y-12403246D02*
X11189110Y-12412770D01*
X11189110Y-12412770D02*
X11198634Y-12431818D01*
X11198634Y-12431818D02*
X11198634Y-12536580D01*
X11198634Y-12431818D02*
X11208158Y-12412770D01*
X11208158Y-12412770D02*
X11227205Y-12403246D01*
X11227205Y-12403246D02*
X11255777Y-12403246D01*
X11255777Y-12403246D02*
X11274824Y-12412770D01*
X11274824Y-12412770D02*
X11284348Y-12431818D01*
X11284348Y-12431818D02*
X11284348Y-12536580D01*
X11379586Y-12536580D02*
X11379586Y-12403246D01*
X11379586Y-12422294D02*
X11389110Y-12412770D01*
X11389110Y-12412770D02*
X11408158Y-12403246D01*
X11408158Y-12403246D02*
X11436729Y-12403246D01*
X11436729Y-12403246D02*
X11455777Y-12412770D01*
X11455777Y-12412770D02*
X11465301Y-12431818D01*
X11465301Y-12431818D02*
X11465301Y-12536580D01*
X11465301Y-12431818D02*
X11474824Y-12412770D01*
X11474824Y-12412770D02*
X11493872Y-12403246D01*
X11493872Y-12403246D02*
X11522443Y-12403246D01*
X11522443Y-12403246D02*
X11541491Y-12412770D01*
X11541491Y-12412770D02*
X11551015Y-12431818D01*
X11551015Y-12431818D02*
X11551015Y-12536580D01*
X11941491Y-12327056D02*
X11770063Y-12584199D01*
X12198634Y-12336580D02*
X12217682Y-12336580D01*
X12217682Y-12336580D02*
X12236729Y-12346104D01*
X12236729Y-12346104D02*
X12246253Y-12355627D01*
X12246253Y-12355627D02*
X12255777Y-12374675D01*
X12255777Y-12374675D02*
X12265301Y-12412770D01*
X12265301Y-12412770D02*
X12265301Y-12460389D01*
X12265301Y-12460389D02*
X12255777Y-12498484D01*
X12255777Y-12498484D02*
X12246253Y-12517532D01*
X12246253Y-12517532D02*
X12236729Y-12527056D01*
X12236729Y-12527056D02*
X12217682Y-12536580D01*
X12217682Y-12536580D02*
X12198634Y-12536580D01*
X12198634Y-12536580D02*
X12179586Y-12527056D01*
X12179586Y-12527056D02*
X12170063Y-12517532D01*
X12170063Y-12517532D02*
X12160539Y-12498484D01*
X12160539Y-12498484D02*
X12151015Y-12460389D01*
X12151015Y-12460389D02*
X12151015Y-12412770D01*
X12151015Y-12412770D02*
X12160539Y-12374675D01*
X12160539Y-12374675D02*
X12170063Y-12355627D01*
X12170063Y-12355627D02*
X12179586Y-12346104D01*
X12179586Y-12346104D02*
X12198634Y-12336580D01*
X12351015Y-12517532D02*
X12360539Y-12527056D01*
X12360539Y-12527056D02*
X12351015Y-12536580D01*
X12351015Y-12536580D02*
X12341491Y-12527056D01*
X12341491Y-12527056D02*
X12351015Y-12517532D01*
X12351015Y-12517532D02*
X12351015Y-12536580D01*
X12484348Y-12336580D02*
X12503396Y-12336580D01*
X12503396Y-12336580D02*
X12522444Y-12346104D01*
X12522444Y-12346104D02*
X12531967Y-12355627D01*
X12531967Y-12355627D02*
X12541491Y-12374675D01*
X12541491Y-12374675D02*
X12551015Y-12412770D01*
X12551015Y-12412770D02*
X12551015Y-12460389D01*
X12551015Y-12460389D02*
X12541491Y-12498484D01*
X12541491Y-12498484D02*
X12531967Y-12517532D01*
X12531967Y-12517532D02*
X12522444Y-12527056D01*
X12522444Y-12527056D02*
X12503396Y-12536580D01*
X12503396Y-12536580D02*
X12484348Y-12536580D01*
X12484348Y-12536580D02*
X12465301Y-12527056D01*
X12465301Y-12527056D02*
X12455777Y-12517532D01*
X12455777Y-12517532D02*
X12446253Y-12498484D01*
X12446253Y-12498484D02*
X12436729Y-12460389D01*
X12436729Y-12460389D02*
X12436729Y-12412770D01*
X12436729Y-12412770D02*
X12446253Y-12374675D01*
X12446253Y-12374675D02*
X12455777Y-12355627D01*
X12455777Y-12355627D02*
X12465301Y-12346104D01*
X12465301Y-12346104D02*
X12484348Y-12336580D01*
X12722444Y-12403246D02*
X12722444Y-12536580D01*
X12674825Y-12327056D02*
X12627206Y-12469913D01*
X12627206Y-12469913D02*
X12751015Y-12469913D01*
X12808158Y-12336580D02*
X12931967Y-12336580D01*
X12931967Y-12336580D02*
X12865301Y-12412770D01*
X12865301Y-12412770D02*
X12893872Y-12412770D01*
X12893872Y-12412770D02*
X12912920Y-12422294D01*
X12912920Y-12422294D02*
X12922444Y-12431818D01*
X12922444Y-12431818D02*
X12931967Y-12450865D01*
X12931967Y-12450865D02*
X12931967Y-12498484D01*
X12931967Y-12498484D02*
X12922444Y-12517532D01*
X12922444Y-12517532D02*
X12912920Y-12527056D01*
X12912920Y-12527056D02*
X12893872Y-12536580D01*
X12893872Y-12536580D02*
X12836729Y-12536580D01*
X12836729Y-12536580D02*
X12817682Y-12527056D01*
X12817682Y-12527056D02*
X12808158Y-12517532D01*
X13055777Y-12336580D02*
X13074825Y-12336580D01*
X13074825Y-12336580D02*
X13093872Y-12346104D01*
X13093872Y-12346104D02*
X13103396Y-12355627D01*
X13103396Y-12355627D02*
X13112920Y-12374675D01*
X13112920Y-12374675D02*
X13122444Y-12412770D01*
X13122444Y-12412770D02*
X13122444Y-12460389D01*
X13122444Y-12460389D02*
X13112920Y-12498484D01*
X13112920Y-12498484D02*
X13103396Y-12517532D01*
X13103396Y-12517532D02*
X13093872Y-12527056D01*
X13093872Y-12527056D02*
X13074825Y-12536580D01*
X13074825Y-12536580D02*
X13055777Y-12536580D01*
X13055777Y-12536580D02*
X13036729Y-12527056D01*
X13036729Y-12527056D02*
X13027206Y-12517532D01*
X13027206Y-12517532D02*
X13017682Y-12498484D01*
X13017682Y-12498484D02*
X13008158Y-12460389D01*
X13008158Y-12460389D02*
X13008158Y-12412770D01*
X13008158Y-12412770D02*
X13017682Y-12374675D01*
X13017682Y-12374675D02*
X13027206Y-12355627D01*
X13027206Y-12355627D02*
X13036729Y-12346104D01*
X13036729Y-12346104D02*
X13055777Y-12336580D01*
X13198634Y-12336580D02*
X13198634Y-12374675D01*
X13274825Y-12336580D02*
X13274825Y-12374675D01*
X13570063Y-12612770D02*
X13560539Y-12603246D01*
X13560539Y-12603246D02*
X13541491Y-12574675D01*
X13541491Y-12574675D02*
X13531968Y-12555627D01*
X13531968Y-12555627D02*
X13522444Y-12527056D01*
X13522444Y-12527056D02*
X13512920Y-12479437D01*
X13512920Y-12479437D02*
X13512920Y-12441342D01*
X13512920Y-12441342D02*
X13522444Y-12393723D01*
X13522444Y-12393723D02*
X13531968Y-12365151D01*
X13531968Y-12365151D02*
X13541491Y-12346104D01*
X13541491Y-12346104D02*
X13560539Y-12317532D01*
X13560539Y-12317532D02*
X13570063Y-12308008D01*
X13636729Y-12355627D02*
X13646253Y-12346104D01*
X13646253Y-12346104D02*
X13665301Y-12336580D01*
X13665301Y-12336580D02*
X13712920Y-12336580D01*
X13712920Y-12336580D02*
X13731968Y-12346104D01*
X13731968Y-12346104D02*
X13741491Y-12355627D01*
X13741491Y-12355627D02*
X13751015Y-12374675D01*
X13751015Y-12374675D02*
X13751015Y-12393723D01*
X13751015Y-12393723D02*
X13741491Y-12422294D01*
X13741491Y-12422294D02*
X13627206Y-12536580D01*
X13627206Y-12536580D02*
X13751015Y-12536580D01*
X13922444Y-12403246D02*
X13922444Y-12536580D01*
X13874825Y-12327056D02*
X13827206Y-12469913D01*
X13827206Y-12469913D02*
X13951015Y-12469913D01*
X14179587Y-12536580D02*
X14179587Y-12336580D01*
X14265301Y-12536580D02*
X14265301Y-12431818D01*
X14265301Y-12431818D02*
X14255777Y-12412770D01*
X14255777Y-12412770D02*
X14236730Y-12403246D01*
X14236730Y-12403246D02*
X14208158Y-12403246D01*
X14208158Y-12403246D02*
X14189110Y-12412770D01*
X14189110Y-12412770D02*
X14179587Y-12422294D01*
X14389110Y-12536580D02*
X14370063Y-12527056D01*
X14370063Y-12527056D02*
X14360539Y-12517532D01*
X14360539Y-12517532D02*
X14351015Y-12498484D01*
X14351015Y-12498484D02*
X14351015Y-12441342D01*
X14351015Y-12441342D02*
X14360539Y-12422294D01*
X14360539Y-12422294D02*
X14370063Y-12412770D01*
X14370063Y-12412770D02*
X14389110Y-12403246D01*
X14389110Y-12403246D02*
X14417682Y-12403246D01*
X14417682Y-12403246D02*
X14436730Y-12412770D01*
X14436730Y-12412770D02*
X14446253Y-12422294D01*
X14446253Y-12422294D02*
X14455777Y-12441342D01*
X14455777Y-12441342D02*
X14455777Y-12498484D01*
X14455777Y-12498484D02*
X14446253Y-12517532D01*
X14446253Y-12517532D02*
X14436730Y-12527056D01*
X14436730Y-12527056D02*
X14417682Y-12536580D01*
X14417682Y-12536580D02*
X14389110Y-12536580D01*
X14570063Y-12536580D02*
X14551015Y-12527056D01*
X14551015Y-12527056D02*
X14541491Y-12508008D01*
X14541491Y-12508008D02*
X14541491Y-12336580D01*
X14722444Y-12527056D02*
X14703396Y-12536580D01*
X14703396Y-12536580D02*
X14665301Y-12536580D01*
X14665301Y-12536580D02*
X14646253Y-12527056D01*
X14646253Y-12527056D02*
X14636730Y-12508008D01*
X14636730Y-12508008D02*
X14636730Y-12431818D01*
X14636730Y-12431818D02*
X14646253Y-12412770D01*
X14646253Y-12412770D02*
X14665301Y-12403246D01*
X14665301Y-12403246D02*
X14703396Y-12403246D01*
X14703396Y-12403246D02*
X14722444Y-12412770D01*
X14722444Y-12412770D02*
X14731968Y-12431818D01*
X14731968Y-12431818D02*
X14731968Y-12450865D01*
X14731968Y-12450865D02*
X14636730Y-12469913D01*
X14808158Y-12527056D02*
X14827206Y-12536580D01*
X14827206Y-12536580D02*
X14865301Y-12536580D01*
X14865301Y-12536580D02*
X14884349Y-12527056D01*
X14884349Y-12527056D02*
X14893872Y-12508008D01*
X14893872Y-12508008D02*
X14893872Y-12498484D01*
X14893872Y-12498484D02*
X14884349Y-12479437D01*
X14884349Y-12479437D02*
X14865301Y-12469913D01*
X14865301Y-12469913D02*
X14836730Y-12469913D01*
X14836730Y-12469913D02*
X14817682Y-12460389D01*
X14817682Y-12460389D02*
X14808158Y-12441342D01*
X14808158Y-12441342D02*
X14808158Y-12431818D01*
X14808158Y-12431818D02*
X14817682Y-12412770D01*
X14817682Y-12412770D02*
X14836730Y-12403246D01*
X14836730Y-12403246D02*
X14865301Y-12403246D01*
X14865301Y-12403246D02*
X14884349Y-12412770D01*
X14960539Y-12612770D02*
X14970063Y-12603246D01*
X14970063Y-12603246D02*
X14989111Y-12574675D01*
X14989111Y-12574675D02*
X14998634Y-12555627D01*
X14998634Y-12555627D02*
X15008158Y-12527056D01*
X15008158Y-12527056D02*
X15017682Y-12479437D01*
X15017682Y-12479437D02*
X15017682Y-12441342D01*
X15017682Y-12441342D02*
X15008158Y-12393723D01*
X15008158Y-12393723D02*
X14998634Y-12365151D01*
X14998634Y-12365151D02*
X14989111Y-12346104D01*
X14989111Y-12346104D02*
X14970063Y-12317532D01*
X14970063Y-12317532D02*
X14960539Y-12308008D01*
D13*
X9995000Y-12709096D02*
G75*
G03*
X9995000Y-12709096I-55000J0D01*
G01*
D11*
X10360539Y-12800580D02*
X10246253Y-12800580D01*
X10303396Y-12800580D02*
X10303396Y-12600580D01*
X10303396Y-12600580D02*
X10284348Y-12629151D01*
X10284348Y-12629151D02*
X10265301Y-12648199D01*
X10265301Y-12648199D02*
X10246253Y-12657723D01*
X10446253Y-12781532D02*
X10455777Y-12791056D01*
X10455777Y-12791056D02*
X10446253Y-12800580D01*
X10446253Y-12800580D02*
X10436729Y-12791056D01*
X10436729Y-12791056D02*
X10446253Y-12781532D01*
X10446253Y-12781532D02*
X10446253Y-12800580D01*
X10646253Y-12800580D02*
X10531967Y-12800580D01*
X10589110Y-12800580D02*
X10589110Y-12600580D01*
X10589110Y-12600580D02*
X10570063Y-12629151D01*
X10570063Y-12629151D02*
X10551015Y-12648199D01*
X10551015Y-12648199D02*
X10531967Y-12657723D01*
X10770063Y-12600580D02*
X10789110Y-12600580D01*
X10789110Y-12600580D02*
X10808158Y-12610104D01*
X10808158Y-12610104D02*
X10817682Y-12619627D01*
X10817682Y-12619627D02*
X10827205Y-12638675D01*
X10827205Y-12638675D02*
X10836729Y-12676770D01*
X10836729Y-12676770D02*
X10836729Y-12724389D01*
X10836729Y-12724389D02*
X10827205Y-12762484D01*
X10827205Y-12762484D02*
X10817682Y-12781532D01*
X10817682Y-12781532D02*
X10808158Y-12791056D01*
X10808158Y-12791056D02*
X10789110Y-12800580D01*
X10789110Y-12800580D02*
X10770063Y-12800580D01*
X10770063Y-12800580D02*
X10751015Y-12791056D01*
X10751015Y-12791056D02*
X10741491Y-12781532D01*
X10741491Y-12781532D02*
X10731967Y-12762484D01*
X10731967Y-12762484D02*
X10722444Y-12724389D01*
X10722444Y-12724389D02*
X10722444Y-12676770D01*
X10722444Y-12676770D02*
X10731967Y-12638675D01*
X10731967Y-12638675D02*
X10741491Y-12619627D01*
X10741491Y-12619627D02*
X10751015Y-12610104D01*
X10751015Y-12610104D02*
X10770063Y-12600580D01*
X10960539Y-12600580D02*
X10979586Y-12600580D01*
X10979586Y-12600580D02*
X10998634Y-12610104D01*
X10998634Y-12610104D02*
X11008158Y-12619627D01*
X11008158Y-12619627D02*
X11017682Y-12638675D01*
X11017682Y-12638675D02*
X11027205Y-12676770D01*
X11027205Y-12676770D02*
X11027205Y-12724389D01*
X11027205Y-12724389D02*
X11017682Y-12762484D01*
X11017682Y-12762484D02*
X11008158Y-12781532D01*
X11008158Y-12781532D02*
X10998634Y-12791056D01*
X10998634Y-12791056D02*
X10979586Y-12800580D01*
X10979586Y-12800580D02*
X10960539Y-12800580D01*
X10960539Y-12800580D02*
X10941491Y-12791056D01*
X10941491Y-12791056D02*
X10931967Y-12781532D01*
X10931967Y-12781532D02*
X10922444Y-12762484D01*
X10922444Y-12762484D02*
X10912920Y-12724389D01*
X10912920Y-12724389D02*
X10912920Y-12676770D01*
X10912920Y-12676770D02*
X10922444Y-12638675D01*
X10922444Y-12638675D02*
X10931967Y-12619627D01*
X10931967Y-12619627D02*
X10941491Y-12610104D01*
X10941491Y-12610104D02*
X10960539Y-12600580D01*
X11112920Y-12800580D02*
X11112920Y-12667246D01*
X11112920Y-12686294D02*
X11122444Y-12676770D01*
X11122444Y-12676770D02*
X11141491Y-12667246D01*
X11141491Y-12667246D02*
X11170063Y-12667246D01*
X11170063Y-12667246D02*
X11189110Y-12676770D01*
X11189110Y-12676770D02*
X11198634Y-12695818D01*
X11198634Y-12695818D02*
X11198634Y-12800580D01*
X11198634Y-12695818D02*
X11208158Y-12676770D01*
X11208158Y-12676770D02*
X11227205Y-12667246D01*
X11227205Y-12667246D02*
X11255777Y-12667246D01*
X11255777Y-12667246D02*
X11274824Y-12676770D01*
X11274824Y-12676770D02*
X11284348Y-12695818D01*
X11284348Y-12695818D02*
X11284348Y-12800580D01*
X11379586Y-12800580D02*
X11379586Y-12667246D01*
X11379586Y-12686294D02*
X11389110Y-12676770D01*
X11389110Y-12676770D02*
X11408158Y-12667246D01*
X11408158Y-12667246D02*
X11436729Y-12667246D01*
X11436729Y-12667246D02*
X11455777Y-12676770D01*
X11455777Y-12676770D02*
X11465301Y-12695818D01*
X11465301Y-12695818D02*
X11465301Y-12800580D01*
X11465301Y-12695818D02*
X11474824Y-12676770D01*
X11474824Y-12676770D02*
X11493872Y-12667246D01*
X11493872Y-12667246D02*
X11522443Y-12667246D01*
X11522443Y-12667246D02*
X11541491Y-12676770D01*
X11541491Y-12676770D02*
X11551015Y-12695818D01*
X11551015Y-12695818D02*
X11551015Y-12800580D01*
X11941491Y-12591056D02*
X11770063Y-12848199D01*
X12198634Y-12600580D02*
X12217682Y-12600580D01*
X12217682Y-12600580D02*
X12236729Y-12610104D01*
X12236729Y-12610104D02*
X12246253Y-12619627D01*
X12246253Y-12619627D02*
X12255777Y-12638675D01*
X12255777Y-12638675D02*
X12265301Y-12676770D01*
X12265301Y-12676770D02*
X12265301Y-12724389D01*
X12265301Y-12724389D02*
X12255777Y-12762484D01*
X12255777Y-12762484D02*
X12246253Y-12781532D01*
X12246253Y-12781532D02*
X12236729Y-12791056D01*
X12236729Y-12791056D02*
X12217682Y-12800580D01*
X12217682Y-12800580D02*
X12198634Y-12800580D01*
X12198634Y-12800580D02*
X12179586Y-12791056D01*
X12179586Y-12791056D02*
X12170063Y-12781532D01*
X12170063Y-12781532D02*
X12160539Y-12762484D01*
X12160539Y-12762484D02*
X12151015Y-12724389D01*
X12151015Y-12724389D02*
X12151015Y-12676770D01*
X12151015Y-12676770D02*
X12160539Y-12638675D01*
X12160539Y-12638675D02*
X12170063Y-12619627D01*
X12170063Y-12619627D02*
X12179586Y-12610104D01*
X12179586Y-12610104D02*
X12198634Y-12600580D01*
X12351015Y-12781532D02*
X12360539Y-12791056D01*
X12360539Y-12791056D02*
X12351015Y-12800580D01*
X12351015Y-12800580D02*
X12341491Y-12791056D01*
X12341491Y-12791056D02*
X12351015Y-12781532D01*
X12351015Y-12781532D02*
X12351015Y-12800580D01*
X12484348Y-12600580D02*
X12503396Y-12600580D01*
X12503396Y-12600580D02*
X12522444Y-12610104D01*
X12522444Y-12610104D02*
X12531967Y-12619627D01*
X12531967Y-12619627D02*
X12541491Y-12638675D01*
X12541491Y-12638675D02*
X12551015Y-12676770D01*
X12551015Y-12676770D02*
X12551015Y-12724389D01*
X12551015Y-12724389D02*
X12541491Y-12762484D01*
X12541491Y-12762484D02*
X12531967Y-12781532D01*
X12531967Y-12781532D02*
X12522444Y-12791056D01*
X12522444Y-12791056D02*
X12503396Y-12800580D01*
X12503396Y-12800580D02*
X12484348Y-12800580D01*
X12484348Y-12800580D02*
X12465301Y-12791056D01*
X12465301Y-12791056D02*
X12455777Y-12781532D01*
X12455777Y-12781532D02*
X12446253Y-12762484D01*
X12446253Y-12762484D02*
X12436729Y-12724389D01*
X12436729Y-12724389D02*
X12436729Y-12676770D01*
X12436729Y-12676770D02*
X12446253Y-12638675D01*
X12446253Y-12638675D02*
X12455777Y-12619627D01*
X12455777Y-12619627D02*
X12465301Y-12610104D01*
X12465301Y-12610104D02*
X12484348Y-12600580D01*
X12722444Y-12667246D02*
X12722444Y-12800580D01*
X12674825Y-12591056D02*
X12627206Y-12733913D01*
X12627206Y-12733913D02*
X12751015Y-12733913D01*
X12808158Y-12600580D02*
X12931967Y-12600580D01*
X12931967Y-12600580D02*
X12865301Y-12676770D01*
X12865301Y-12676770D02*
X12893872Y-12676770D01*
X12893872Y-12676770D02*
X12912920Y-12686294D01*
X12912920Y-12686294D02*
X12922444Y-12695818D01*
X12922444Y-12695818D02*
X12931967Y-12714865D01*
X12931967Y-12714865D02*
X12931967Y-12762484D01*
X12931967Y-12762484D02*
X12922444Y-12781532D01*
X12922444Y-12781532D02*
X12912920Y-12791056D01*
X12912920Y-12791056D02*
X12893872Y-12800580D01*
X12893872Y-12800580D02*
X12836729Y-12800580D01*
X12836729Y-12800580D02*
X12817682Y-12791056D01*
X12817682Y-12791056D02*
X12808158Y-12781532D01*
X12998634Y-12600580D02*
X13122444Y-12600580D01*
X13122444Y-12600580D02*
X13055777Y-12676770D01*
X13055777Y-12676770D02*
X13084348Y-12676770D01*
X13084348Y-12676770D02*
X13103396Y-12686294D01*
X13103396Y-12686294D02*
X13112920Y-12695818D01*
X13112920Y-12695818D02*
X13122444Y-12714865D01*
X13122444Y-12714865D02*
X13122444Y-12762484D01*
X13122444Y-12762484D02*
X13112920Y-12781532D01*
X13112920Y-12781532D02*
X13103396Y-12791056D01*
X13103396Y-12791056D02*
X13084348Y-12800580D01*
X13084348Y-12800580D02*
X13027206Y-12800580D01*
X13027206Y-12800580D02*
X13008158Y-12791056D01*
X13008158Y-12791056D02*
X12998634Y-12781532D01*
X13198634Y-12600580D02*
X13198634Y-12638675D01*
X13274825Y-12600580D02*
X13274825Y-12638675D01*
X13570063Y-12876770D02*
X13560539Y-12867246D01*
X13560539Y-12867246D02*
X13541491Y-12838675D01*
X13541491Y-12838675D02*
X13531968Y-12819627D01*
X13531968Y-12819627D02*
X13522444Y-12791056D01*
X13522444Y-12791056D02*
X13512920Y-12743437D01*
X13512920Y-12743437D02*
X13512920Y-12705342D01*
X13512920Y-12705342D02*
X13522444Y-12657723D01*
X13522444Y-12657723D02*
X13531968Y-12629151D01*
X13531968Y-12629151D02*
X13541491Y-12610104D01*
X13541491Y-12610104D02*
X13560539Y-12581532D01*
X13560539Y-12581532D02*
X13570063Y-12572008D01*
X13636729Y-12619627D02*
X13646253Y-12610104D01*
X13646253Y-12610104D02*
X13665301Y-12600580D01*
X13665301Y-12600580D02*
X13712920Y-12600580D01*
X13712920Y-12600580D02*
X13731968Y-12610104D01*
X13731968Y-12610104D02*
X13741491Y-12619627D01*
X13741491Y-12619627D02*
X13751015Y-12638675D01*
X13751015Y-12638675D02*
X13751015Y-12657723D01*
X13751015Y-12657723D02*
X13741491Y-12686294D01*
X13741491Y-12686294D02*
X13627206Y-12800580D01*
X13627206Y-12800580D02*
X13751015Y-12800580D01*
X13989110Y-12800580D02*
X13989110Y-12600580D01*
X14074825Y-12800580D02*
X14074825Y-12695818D01*
X14074825Y-12695818D02*
X14065301Y-12676770D01*
X14065301Y-12676770D02*
X14046253Y-12667246D01*
X14046253Y-12667246D02*
X14017682Y-12667246D01*
X14017682Y-12667246D02*
X13998634Y-12676770D01*
X13998634Y-12676770D02*
X13989110Y-12686294D01*
X14198634Y-12800580D02*
X14179587Y-12791056D01*
X14179587Y-12791056D02*
X14170063Y-12781532D01*
X14170063Y-12781532D02*
X14160539Y-12762484D01*
X14160539Y-12762484D02*
X14160539Y-12705342D01*
X14160539Y-12705342D02*
X14170063Y-12686294D01*
X14170063Y-12686294D02*
X14179587Y-12676770D01*
X14179587Y-12676770D02*
X14198634Y-12667246D01*
X14198634Y-12667246D02*
X14227206Y-12667246D01*
X14227206Y-12667246D02*
X14246253Y-12676770D01*
X14246253Y-12676770D02*
X14255777Y-12686294D01*
X14255777Y-12686294D02*
X14265301Y-12705342D01*
X14265301Y-12705342D02*
X14265301Y-12762484D01*
X14265301Y-12762484D02*
X14255777Y-12781532D01*
X14255777Y-12781532D02*
X14246253Y-12791056D01*
X14246253Y-12791056D02*
X14227206Y-12800580D01*
X14227206Y-12800580D02*
X14198634Y-12800580D01*
X14379587Y-12800580D02*
X14360539Y-12791056D01*
X14360539Y-12791056D02*
X14351015Y-12772008D01*
X14351015Y-12772008D02*
X14351015Y-12600580D01*
X14531968Y-12791056D02*
X14512920Y-12800580D01*
X14512920Y-12800580D02*
X14474825Y-12800580D01*
X14474825Y-12800580D02*
X14455777Y-12791056D01*
X14455777Y-12791056D02*
X14446253Y-12772008D01*
X14446253Y-12772008D02*
X14446253Y-12695818D01*
X14446253Y-12695818D02*
X14455777Y-12676770D01*
X14455777Y-12676770D02*
X14474825Y-12667246D01*
X14474825Y-12667246D02*
X14512920Y-12667246D01*
X14512920Y-12667246D02*
X14531968Y-12676770D01*
X14531968Y-12676770D02*
X14541491Y-12695818D01*
X14541491Y-12695818D02*
X14541491Y-12714865D01*
X14541491Y-12714865D02*
X14446253Y-12733913D01*
X14617682Y-12791056D02*
X14636730Y-12800580D01*
X14636730Y-12800580D02*
X14674825Y-12800580D01*
X14674825Y-12800580D02*
X14693872Y-12791056D01*
X14693872Y-12791056D02*
X14703396Y-12772008D01*
X14703396Y-12772008D02*
X14703396Y-12762484D01*
X14703396Y-12762484D02*
X14693872Y-12743437D01*
X14693872Y-12743437D02*
X14674825Y-12733913D01*
X14674825Y-12733913D02*
X14646253Y-12733913D01*
X14646253Y-12733913D02*
X14627206Y-12724389D01*
X14627206Y-12724389D02*
X14617682Y-12705342D01*
X14617682Y-12705342D02*
X14617682Y-12695818D01*
X14617682Y-12695818D02*
X14627206Y-12676770D01*
X14627206Y-12676770D02*
X14646253Y-12667246D01*
X14646253Y-12667246D02*
X14674825Y-12667246D01*
X14674825Y-12667246D02*
X14693872Y-12676770D01*
X14770063Y-12876770D02*
X14779587Y-12867246D01*
X14779587Y-12867246D02*
X14798634Y-12838675D01*
X14798634Y-12838675D02*
X14808158Y-12819627D01*
X14808158Y-12819627D02*
X14817682Y-12791056D01*
X14817682Y-12791056D02*
X14827206Y-12743437D01*
X14827206Y-12743437D02*
X14827206Y-12705342D01*
X14827206Y-12705342D02*
X14817682Y-12657723D01*
X14817682Y-12657723D02*
X14808158Y-12629151D01*
X14808158Y-12629151D02*
X14798634Y-12610104D01*
X14798634Y-12610104D02*
X14779587Y-12581532D01*
X14779587Y-12581532D02*
X14770063Y-12572008D01*
M02*
